solid OpenSCAD_Model
  facet normal 1 -0 0
    outer loop
      vertex 60 56.5 50
      vertex 60 60 0.799999
      vertex 60 60 50
    endloop
  endfacet
  facet normal 1 0 0
    outer loop
      vertex 60 60 0.799999
      vertex 60 56.5 50
      vertex 60 56.5 0.799999
    endloop
  endfacet
  facet normal 1 -0 0
    outer loop
      vertex 60 0 50
      vertex 60 3.5 0.799999
      vertex 60 3.5 50
    endloop
  endfacet
  facet normal 1 0 0
    outer loop
      vertex 60 3.5 0.799999
      vertex 60 0 50
      vertex 60 0 0.799999
    endloop
  endfacet
  facet normal 1 0 0
    outer loop
      vertex 60 55.5 50
      vertex 60 53.4473 0.799999
      vertex 60 55.5 0.799999
    endloop
  endfacet
  facet normal 1 0 0
    outer loop
      vertex 60 53.4473 0.799999
      vertex 60 6.55274 0.799999
      vertex 60 53.4473 0
    endloop
  endfacet
  facet normal 1 0 0
    outer loop
      vertex 60 55.5 50
      vertex 60 6.55274 0.799999
      vertex 60 53.4473 0.799999
    endloop
  endfacet
  facet normal 1 -0 0
    outer loop
      vertex 60 4.5 50
      vertex 60 6.55274 0.799999
      vertex 60 55.5 50
    endloop
  endfacet
  facet normal 1 0 0
    outer loop
      vertex 60 6.55274 0.799999
      vertex 60 4.5 50
      vertex 60 4.5 0.799999
    endloop
  endfacet
  facet normal 1 0 0
    outer loop
      vertex 60 53.4473 0
      vertex 60 6.55274 0.799999
      vertex 60 6.55274 0
    endloop
  endfacet
  facet normal 0 0 1
    outer loop
      vertex 60 60 50
      vertex 59 56.5 50
      vertex 60 56.5 50
    endloop
  endfacet
  facet normal 0 0 1
    outer loop
      vertex 55 55 50
      vertex 59 55.5 50
      vertex 59 56.5 50
    endloop
  endfacet
  facet normal 0 0 1
    outer loop
      vertex 59 55.5 50
      vertex 55.5 31 50
      vertex 59 4.5 50
    endloop
  endfacet
  facet normal 0 0 1
    outer loop
      vertex 60 60 50
      vertex 56.5 59 50
      vertex 59 56.5 50
    endloop
  endfacet
  facet normal 0 0 1
    outer loop
      vertex 56.5 59 50
      vertex 60 60 50
      vertex 56.5 60 50
    endloop
  endfacet
  facet normal -0 0 1
    outer loop
      vertex 59 55.5 50
      vertex 60 4.5 50
      vertex 60 55.5 50
    endloop
  endfacet
  facet normal 0 0 1
    outer loop
      vertex 60 4.5 50
      vertex 59 55.5 50
      vertex 59 4.5 50
    endloop
  endfacet
  facet normal -0 0 1
    outer loop
      vertex 59 3.5 50
      vertex 60 0 50
      vertex 60 3.5 50
    endloop
  endfacet
  facet normal 0 0 1
    outer loop
      vertex 55 55 50
      vertex 59 56.5 50
      vertex 56.5 59 50
    endloop
  endfacet
  facet normal -0 0 1
    outer loop
      vertex 55.5 29 50
      vertex 59 4.5 50
      vertex 55.5 31 50
    endloop
  endfacet
  facet normal -0 0 1
    outer loop
      vertex 56.5 1 50
      vertex 60 0 50
      vertex 59 3.5 50
    endloop
  endfacet
  facet normal 0 0 1
    outer loop
      vertex 60 0 50
      vertex 56.5 1 50
      vertex 56.5 0 50
    endloop
  endfacet
  facet normal -0 0 1
    outer loop
      vertex 0 55.5 50
      vertex 1 4.5 50
      vertex 1 55.5 50
    endloop
  endfacet
  facet normal 0 0 1
    outer loop
      vertex 1 4.5 50
      vertex 0 55.5 50
      vertex 0 4.5 50
    endloop
  endfacet
  facet normal -0 0 1
    outer loop
      vertex 0 60 50
      vertex 3.5 59 50
      vertex 3.5 60 50
    endloop
  endfacet
  facet normal 0 0 1
    outer loop
      vertex 3.5 59 50
      vertex 1 55.5 50
      vertex 3.5 1 50
    endloop
  endfacet
  facet normal 0 0 1
    outer loop
      vertex 3.5 59 50
      vertex 1 56.5 50
      vertex 1 55.5 50
    endloop
  endfacet
  facet normal 0 0 1
    outer loop
      vertex 3.5 59 50
      vertex 0 60 50
      vertex 1 56.5 50
    endloop
  endfacet
  facet normal 0 0 1
    outer loop
      vertex 1 56.5 50
      vertex 0 60 50
      vertex 0 56.5 50
    endloop
  endfacet
  facet normal -0 0 1
    outer loop
      vertex 1 4.5 50
      vertex 3.5 1 50
      vertex 1 55.5 50
    endloop
  endfacet
  facet normal -0 0 1
    outer loop
      vertex 1 3.5 50
      vertex 3.5 1 50
      vertex 1 4.5 50
    endloop
  endfacet
  facet normal 0 0 1
    outer loop
      vertex 0 0 50
      vertex 3.5 1 50
      vertex 1 3.5 50
    endloop
  endfacet
  facet normal 0 0 1
    outer loop
      vertex 0 0 50
      vertex 1 3.5 50
      vertex 0 3.5 50
    endloop
  endfacet
  facet normal 0 0 1
    outer loop
      vertex 3.5 1 50
      vertex 0 0 50
      vertex 3.5 0 50
    endloop
  endfacet
  facet normal 0 0 1
    outer loop
      vertex 5 25 50
      vertex 4.5 25 50
      vertex 5 5 50
    endloop
  endfacet
  facet normal 0 0 1
    outer loop
      vertex 29 5 50
      vertex 5 5 50
      vertex 29 4.5 50
    endloop
  endfacet
  facet normal 0 0 1
    outer loop
      vertex 55 55 50
      vertex 56.5 59 50
      vertex 55.5 59 50
    endloop
  endfacet
  facet normal -0 0 1
    outer loop
      vertex 55 5 50
      vertex 59 4.5 50
      vertex 55.5 29 50
    endloop
  endfacet
  facet normal 0 0 1
    outer loop
      vertex 59 4.5 50
      vertex 55 5 50
      vertex 59 3.5 50
    endloop
  endfacet
  facet normal 0 0 1
    outer loop
      vertex 59 3.5 50
      vertex 55 5 50
      vertex 56.5 1 50
    endloop
  endfacet
  facet normal 0 0 1
    outer loop
      vertex 56.5 1 50
      vertex 55 5 50
      vertex 55.5 1 50
    endloop
  endfacet
  facet normal 0 0 1
    outer loop
      vertex 55 5 50
      vertex 55.5 29 50
      vertex 55 29 50
    endloop
  endfacet
  facet normal -0 0 1
    outer loop
      vertex 31 4.5 50
      vertex 55.5 1 50
      vertex 55 5 50
    endloop
  endfacet
  facet normal 0 0 1
    outer loop
      vertex 31 4.5 50
      vertex 55 5 50
      vertex 31 5 50
    endloop
  endfacet
  facet normal 0 0 1
    outer loop
      vertex 55.5 1 50
      vertex 31 4.5 50
      vertex 55.5 0 50
    endloop
  endfacet
  facet normal -0 0 1
    outer loop
      vertex 29 4.5 50
      vertex 55.5 0 50
      vertex 31 4.5 50
    endloop
  endfacet
  facet normal 0 0 1
    outer loop
      vertex 4.5 1 50
      vertex 29 4.5 50
      vertex 5 5 50
    endloop
  endfacet
  facet normal 0 0 1
    outer loop
      vertex 3.5 1 50
      vertex 5 5 50
      vertex 4.5 25 50
    endloop
  endfacet
  facet normal 0 0 1
    outer loop
      vertex 29 4.5 50
      vertex 4.5 1 50
      vertex 4.5 0 50
    endloop
  endfacet
  facet normal 0 0 1
    outer loop
      vertex 29 4.5 50
      vertex 4.5 0 50
      vertex 55.5 0 50
    endloop
  endfacet
  facet normal 0 0 1
    outer loop
      vertex 31 55.5 50
      vertex 55.5 59 50
      vertex 55.5 60 50
    endloop
  endfacet
  facet normal 0 0 1
    outer loop
      vertex 59 55.5 50
      vertex 55 55 50
      vertex 55.5 31 50
    endloop
  endfacet
  facet normal 0 0 1
    outer loop
      vertex 55.5 59 50
      vertex 31 55.5 50
      vertex 55 55 50
    endloop
  endfacet
  facet normal 0 0 1
    outer loop
      vertex 55.5 60 50
      vertex 29 55.5 50
      vertex 31 55.5 50
    endloop
  endfacet
  facet normal 0 0 1
    outer loop
      vertex 29 55.5 50
      vertex 5 55 50
      vertex 29 55 50
    endloop
  endfacet
  facet normal -0 0 1
    outer loop
      vertex 4.5 60 50
      vertex 29 55.5 50
      vertex 55.5 60 50
    endloop
  endfacet
  facet normal -0 0 1
    outer loop
      vertex 4.5 59 50
      vertex 29 55.5 50
      vertex 4.5 60 50
    endloop
  endfacet
  facet normal 0 0 1
    outer loop
      vertex 29 55.5 50
      vertex 4.5 59 50
      vertex 5 55 50
    endloop
  endfacet
  facet normal -0 0 1
    outer loop
      vertex 3.5 59 50
      vertex 5 55 50
      vertex 4.5 59 50
    endloop
  endfacet
  facet normal 0 0 1
    outer loop
      vertex 5 55 50
      vertex 4.5 27 50
      vertex 5 27 50
    endloop
  endfacet
  facet normal 0 0 1
    outer loop
      vertex 5 55 50
      vertex 3.5 59 50
      vertex 4.5 27 50
    endloop
  endfacet
  facet normal 0 0 1
    outer loop
      vertex 3.5 1 50
      vertex 4.5 27 50
      vertex 3.5 59 50
    endloop
  endfacet
  facet normal 0 0 1
    outer loop
      vertex 4.5 27 50
      vertex 3.5 1 50
      vertex 4.5 25 50
    endloop
  endfacet
  facet normal 0 0 1
    outer loop
      vertex 5 5 50
      vertex 3.5 1 50
      vertex 4.5 1 50
    endloop
  endfacet
  facet normal 0 0 1
    outer loop
      vertex 55.5 31 50
      vertex 55 55 50
      vertex 55 31 50
    endloop
  endfacet
  facet normal 0 0 1
    outer loop
      vertex 55 55 50
      vertex 31 55.5 50
      vertex 31 55 50
    endloop
  endfacet
  facet normal 0 0 -1
    outer loop
      vertex 55 5 0
      vertex 63 2 0
      vertex 62.8907 0.960441 0
    endloop
  endfacet
  facet normal 0 0 -1
    outer loop
      vertex 55 5 0
      vertex 62.8907 0.960441 0
      vertex 62.5677 -0.0336828 0
    endloop
  endfacet
  facet normal 0 0 -1
    outer loop
      vertex 63 2 0
      vertex 55 5 0
      vertex 62.8907 3.03956 0
    endloop
  endfacet
  facet normal 0 0 -1
    outer loop
      vertex 55 5 0
      vertex 62.5677 -0.0336828 0
      vertex 62.0451 -0.938926 0
    endloop
  endfacet
  facet normal 0 0 -1
    outer loop
      vertex 62.8907 3.03956 0
      vertex 55 5 0
      vertex 62.5677 4.03368 0
    endloop
  endfacet
  facet normal 0 0 -1
    outer loop
      vertex 55 5 0
      vertex 62.0451 -0.938926 0
      vertex 61.3457 -1.71572 0
    endloop
  endfacet
  facet normal 0 0 -1
    outer loop
      vertex 62.5677 4.03368 0
      vertex 55 5 0
      vertex 62.0451 4.93893 0
    endloop
  endfacet
  facet normal 0 0 -1
    outer loop
      vertex 55 5 0
      vertex 61.3457 -1.71572 0
      vertex 60.5 -2.33013 0
    endloop
  endfacet
  facet normal 0 0 -1
    outer loop
      vertex 62.0451 4.93893 0
      vertex 55 5 0
      vertex 61.3457 5.71572 0
    endloop
  endfacet
  facet normal 0 -0 -1
    outer loop
      vertex 60 6.55274 0
      vertex 61.3457 5.71572 0
      vertex 55 5 0
    endloop
  endfacet
  facet normal 0 0 -1
    outer loop
      vertex 61.3457 5.71572 0
      vertex 60 6.55274 0
      vertex 60.5 6.33013 0
    endloop
  endfacet
  facet normal 0 0 -1
    outer loop
      vertex 55 5 0
      vertex 60.5 -2.33013 0
      vertex 59.5451 -2.75528 0
    endloop
  endfacet
  facet normal 0 0 -1
    outer loop
      vertex 55 55 0
      vertex 63 58 0
      vertex 62.8907 56.9604 0
    endloop
  endfacet
  facet normal 0 0 -1
    outer loop
      vertex 55 55 0
      vertex 62.8907 56.9604 0
      vertex 62.5677 55.9663 0
    endloop
  endfacet
  facet normal -0 0 -1
    outer loop
      vertex 63 58 0
      vertex 55 55 0
      vertex 62.8907 59.0396 0
    endloop
  endfacet
  facet normal 0 0 -1
    outer loop
      vertex 55 55 0
      vertex 62.5677 55.9663 0
      vertex 62.0451 55.0611 0
    endloop
  endfacet
  facet normal -0 0 -1
    outer loop
      vertex 62.8907 59.0396 0
      vertex 55 55 0
      vertex 62.5677 60.0337 0
    endloop
  endfacet
  facet normal 0 0 -1
    outer loop
      vertex 55 55 0
      vertex 62.0451 55.0611 0
      vertex 61.3457 54.2843 0
    endloop
  endfacet
  facet normal -0 0 -1
    outer loop
      vertex 62.5677 60.0337 0
      vertex 55 55 0
      vertex 62.0451 60.9389 0
    endloop
  endfacet
  facet normal 0 0 -1
    outer loop
      vertex 60 53.4473 0
      vertex 61.3457 54.2843 0
      vertex 60.5 53.6699 0
    endloop
  endfacet
  facet normal -0 0 -1
    outer loop
      vertex 62.0451 60.9389 0
      vertex 55 55 0
      vertex 61.3457 61.7157 0
    endloop
  endfacet
  facet normal -0 0 -1
    outer loop
      vertex 61.3457 54.2843 0
      vertex 60 53.4473 0
      vertex 55 55 0
    endloop
  endfacet
  facet normal -0 0 -1
    outer loop
      vertex 61.3457 61.7157 0
      vertex 55 55 0
      vertex 60.5 62.3301 0
    endloop
  endfacet
  facet normal 0 0 -1
    outer loop
      vertex 60 6.55274 0
      vertex 55.5 29 0
      vertex 60 53.4473 0
    endloop
  endfacet
  facet normal 0 0 -1
    outer loop
      vertex 55 5 0
      vertex 59.5451 -2.75528 0
      vertex 58.5226 -2.97261 0
    endloop
  endfacet
  facet normal 0 0 -1
    outer loop
      vertex 55.5 31 0
      vertex 60 53.4473 0
      vertex 55.5 29 0
    endloop
  endfacet
  facet normal 0 0 -1
    outer loop
      vertex 55 5 0
      vertex 58.5226 -2.97261 0
      vertex 57.4774 -2.97261 0
    endloop
  endfacet
  facet normal 0 0 -1
    outer loop
      vertex 55 31 0
      vertex 60 53.4473 0
      vertex 55.5 31 0
    endloop
  endfacet
  facet normal 0 0 -1
    outer loop
      vertex 55 5 0
      vertex 57.4774 -2.97261 0
      vertex 56.4549 -2.75528 0
    endloop
  endfacet
  facet normal -0 0 -1
    outer loop
      vertex 60.5 62.3301 0
      vertex 55 55 0
      vertex 59.5451 62.7553 0
    endloop
  endfacet
  facet normal 0 0 -1
    outer loop
      vertex 55 5 0
      vertex 56.4549 -2.75528 0
      vertex 55.5 -2.33013 0
    endloop
  endfacet
  facet normal -0 0 -1
    outer loop
      vertex 59.5451 62.7553 0
      vertex 55 55 0
      vertex 58.5226 62.9726 0
    endloop
  endfacet
  facet normal -0 0 -1
    outer loop
      vertex 58.5226 62.9726 0
      vertex 55 55 0
      vertex 57.4774 62.9726 0
    endloop
  endfacet
  facet normal 0 0 -1
    outer loop
      vertex 57.4774 62.9726 0
      vertex 55 55 0
      vertex 56.4549 62.7553 0
    endloop
  endfacet
  facet normal -0 0 -1
    outer loop
      vertex 60 53.4473 0
      vertex 55 31 0
      vertex 55 55 0
    endloop
  endfacet
  facet normal 0 0 -1
    outer loop
      vertex 56.4549 62.7553 0
      vertex 55 55 0
      vertex 55.5 62.3301 0
    endloop
  endfacet
  facet normal 0 0 -1
    outer loop
      vertex 55 55 0
      vertex 54.6543 61.7157 0
      vertex 55.5 62.3301 0
    endloop
  endfacet
  facet normal 0 0 -1
    outer loop
      vertex 55 55 0
      vertex 53.9549 60.9389 0
      vertex 54.6543 61.7157 0
    endloop
  endfacet
  facet normal 0 0 -1
    outer loop
      vertex 53.4213 60 0
      vertex 53.9549 60.9389 0
      vertex 55 55 0
    endloop
  endfacet
  facet normal 0 0 -1
    outer loop
      vertex 53.9549 60.9389 0
      vertex 53.4213 60 0
      vertex 53.4323 60.0337 0
    endloop
  endfacet
  facet normal 0 0 -1
    outer loop
      vertex 31 55 0
      vertex 53.4213 60 0
      vertex 55 55 0
    endloop
  endfacet
  facet normal 0 0 -1
    outer loop
      vertex 31 55.5 0
      vertex 53.4213 60 0
      vertex 31 55 0
    endloop
  endfacet
  facet normal 0 0 -1
    outer loop
      vertex 29 55.5 0
      vertex 53.4213 60 0
      vertex 31 55.5 0
    endloop
  endfacet
  facet normal -0 0 -1
    outer loop
      vertex 53.4213 60 0
      vertex 29 55.5 0
      vertex 6.57867 60 0
    endloop
  endfacet
  facet normal 0 0 -1
    outer loop
      vertex 0 53.4473 0
      vertex 5 27 0
      vertex 4.5 27 0
    endloop
  endfacet
  facet normal 0 0 -1
    outer loop
      vertex 29 55 0
      vertex 6.57867 60 0
      vertex 29 55.5 0
    endloop
  endfacet
  facet normal 0 0 -1
    outer loop
      vertex 6.57867 60 0
      vertex 6.04508 60.9389 0
      vertex 6.56773 60.0337 0
    endloop
  endfacet
  facet normal 0 0 -1
    outer loop
      vertex 5 55 0
      vertex 6.04508 60.9389 0
      vertex 6.57867 60 0
    endloop
  endfacet
  facet normal 0 0 -1
    outer loop
      vertex 5 55 0
      vertex 6.57867 60 0
      vertex 29 55 0
    endloop
  endfacet
  facet normal -0 0 -1
    outer loop
      vertex 6.04508 60.9389 0
      vertex 5 55 0
      vertex 5.34565 61.7157 0
    endloop
  endfacet
  facet normal 0 0 -1
    outer loop
      vertex 5 55 0
      vertex 4.5 62.3301 0
      vertex 5.34565 61.7157 0
    endloop
  endfacet
  facet normal 0 0 -1
    outer loop
      vertex 5 27 0
      vertex 0 53.4473 0
      vertex 5 55 0
    endloop
  endfacet
  facet normal 0 0 -1
    outer loop
      vertex 53.4213 0 0
      vertex 29 4.5 0
      vertex 31 4.5 0
    endloop
  endfacet
  facet normal 0 0 -1
    outer loop
      vertex 6.57867 0 0
      vertex 29 4.5 0
      vertex 53.4213 0 0
    endloop
  endfacet
  facet normal 0 0 -1
    outer loop
      vertex 6.57867 0 0
      vertex 29 5 0
      vertex 29 4.5 0
    endloop
  endfacet
  facet normal 0 0 -1
    outer loop
      vertex 6.04508 -0.938926 0
      vertex 6.57867 0 0
      vertex 6.56773 -0.0336828 0
    endloop
  endfacet
  facet normal 0 0 -1
    outer loop
      vertex 5 5 0
      vertex 6.04508 -0.938926 0
      vertex 5.34565 -1.71572 0
    endloop
  endfacet
  facet normal 0 0 -1
    outer loop
      vertex 6.57867 0 0
      vertex 5 5 0
      vertex 29 5 0
    endloop
  endfacet
  facet normal 0 0 -1
    outer loop
      vertex 6.04508 -0.938926 0
      vertex 5 5 0
      vertex 6.57867 0 0
    endloop
  endfacet
  facet normal 0 0 -1
    outer loop
      vertex 4.5 -2.33013 0
      vertex 5 5 0
      vertex 5.34565 -1.71572 0
    endloop
  endfacet
  facet normal 0 0 -1
    outer loop
      vertex 3.54508 -2.75528 0
      vertex 5 5 0
      vertex 4.5 -2.33013 0
    endloop
  endfacet
  facet normal 0 0 -1
    outer loop
      vertex 5 5 0
      vertex 0 6.55274 0
      vertex 5 25 0
    endloop
  endfacet
  facet normal -0 0 -1
    outer loop
      vertex 5 25 0
      vertex 0 6.55274 0
      vertex 4.5 25 0
    endloop
  endfacet
  facet normal -0 0 -1
    outer loop
      vertex 4.5 25 0
      vertex 0 6.55274 0
      vertex 4.5 27 0
    endloop
  endfacet
  facet normal 0 0 -1
    outer loop
      vertex 2.52264 -2.97261 0
      vertex 5 5 0
      vertex 3.54508 -2.75528 0
    endloop
  endfacet
  facet normal 0 0 -1
    outer loop
      vertex 0 53.4473 0
      vertex 4.5 27 0
      vertex 0 6.55274 0
    endloop
  endfacet
  facet normal 0 0 -1
    outer loop
      vertex 1.47736 -2.97261 0
      vertex 5 5 0
      vertex 2.52264 -2.97261 0
    endloop
  endfacet
  facet normal 0 0 -1
    outer loop
      vertex -1.34565 54.2843 0
      vertex 5 55 0
      vertex 0 53.4473 0
    endloop
  endfacet
  facet normal 0 0 -1
    outer loop
      vertex 0.454914 -2.75528 0
      vertex 5 5 0
      vertex 1.47736 -2.97261 0
    endloop
  endfacet
  facet normal 0 0 -1
    outer loop
      vertex 5 55 0
      vertex 3.54508 62.7553 0
      vertex 4.5 62.3301 0
    endloop
  endfacet
  facet normal 0 0 -1
    outer loop
      vertex -0.5 -2.33013 0
      vertex 5 5 0
      vertex 0.454914 -2.75528 0
    endloop
  endfacet
  facet normal 0 0 -1
    outer loop
      vertex 5 55 0
      vertex 2.52264 62.9726 0
      vertex 3.54508 62.7553 0
    endloop
  endfacet
  facet normal 0 0 -1
    outer loop
      vertex 5 55 0
      vertex 1.47736 62.9726 0
      vertex 2.52264 62.9726 0
    endloop
  endfacet
  facet normal 0 0 -1
    outer loop
      vertex -1.34565 -1.71572 0
      vertex 5 5 0
      vertex -0.5 -2.33013 0
    endloop
  endfacet
  facet normal 0 0 -1
    outer loop
      vertex -2.04508 -0.938926 0
      vertex 5 5 0
      vertex -1.34565 -1.71572 0
    endloop
  endfacet
  facet normal 0 0 -1
    outer loop
      vertex -2.56773 -0.0336828 0
      vertex 5 5 0
      vertex -2.04508 -0.938926 0
    endloop
  endfacet
  facet normal 0 0 -1
    outer loop
      vertex 0 6.55274 0
      vertex -1.34565 5.71572 0
      vertex -0.5 6.33013 0
    endloop
  endfacet
  facet normal 0 -0 -1
    outer loop
      vertex -1.34565 5.71572 0
      vertex 5 5 0
      vertex -2.04508 4.93893 0
    endloop
  endfacet
  facet normal 0 0 -1
    outer loop
      vertex 5 5 0
      vertex -1.34565 5.71572 0
      vertex 0 6.55274 0
    endloop
  endfacet
  facet normal 0 0 -1
    outer loop
      vertex -2.89074 0.960441 0
      vertex 5 5 0
      vertex -2.56773 -0.0336828 0
    endloop
  endfacet
  facet normal 0 0 -1
    outer loop
      vertex 5 5 0
      vertex -2.56773 4.03368 0
      vertex -2.04508 4.93893 0
    endloop
  endfacet
  facet normal 0 0 -1
    outer loop
      vertex -3 2 0
      vertex 5 5 0
      vertex -2.89074 0.960441 0
    endloop
  endfacet
  facet normal 0 0 -1
    outer loop
      vertex 5 5 0
      vertex -2.89074 3.03956 0
      vertex -2.56773 4.03368 0
    endloop
  endfacet
  facet normal 0 0 -1
    outer loop
      vertex 5 5 0
      vertex -3 2 0
      vertex -2.89074 3.03956 0
    endloop
  endfacet
  facet normal 0 0 -1
    outer loop
      vertex 55 29 0
      vertex 60 6.55274 0
      vertex 55 5 0
    endloop
  endfacet
  facet normal 0 0 -1
    outer loop
      vertex 54.6543 -1.71572 0
      vertex 55 5 0
      vertex 55.5 -2.33013 0
    endloop
  endfacet
  facet normal 0 0 -1
    outer loop
      vertex 53.9549 -0.938926 0
      vertex 55 5 0
      vertex 54.6543 -1.71572 0
    endloop
  endfacet
  facet normal 0 0 -1
    outer loop
      vertex 53.4213 0 0
      vertex 53.9549 -0.938926 0
      vertex 53.4323 -0.0336828 0
    endloop
  endfacet
  facet normal 0 0 -1
    outer loop
      vertex 53.9549 -0.938926 0
      vertex 53.4213 0 0
      vertex 55 5 0
    endloop
  endfacet
  facet normal 0 0 -1
    outer loop
      vertex 31 5 0
      vertex 53.4213 0 0
      vertex 31 4.5 0
    endloop
  endfacet
  facet normal 0 0 -1
    outer loop
      vertex 53.4213 0 0
      vertex 31 5 0
      vertex 55 5 0
    endloop
  endfacet
  facet normal 0 0 -1
    outer loop
      vertex 60 6.55274 0
      vertex 55 29 0
      vertex 55.5 29 0
    endloop
  endfacet
  facet normal 0 0 -1
    outer loop
      vertex 5 55 0
      vertex 0.454914 62.7553 0
      vertex 1.47736 62.9726 0
    endloop
  endfacet
  facet normal 0 0 -1
    outer loop
      vertex -1.34565 54.2843 0
      vertex 0 53.4473 0
      vertex -0.5 53.6699 0
    endloop
  endfacet
  facet normal 0 0 -1
    outer loop
      vertex 5 55 0
      vertex -0.5 62.3301 0
      vertex 0.454914 62.7553 0
    endloop
  endfacet
  facet normal -0 0 -1
    outer loop
      vertex 5 55 0
      vertex -1.34565 54.2843 0
      vertex -2.04508 55.0611 0
    endloop
  endfacet
  facet normal 0 0 -1
    outer loop
      vertex 5 55 0
      vertex -1.34565 61.7157 0
      vertex -0.5 62.3301 0
    endloop
  endfacet
  facet normal 0 0 -1
    outer loop
      vertex -2.56773 55.9663 0
      vertex 5 55 0
      vertex -2.04508 55.0611 0
    endloop
  endfacet
  facet normal 0 0 -1
    outer loop
      vertex 5 55 0
      vertex -2.04508 60.9389 0
      vertex -1.34565 61.7157 0
    endloop
  endfacet
  facet normal 0 0 -1
    outer loop
      vertex -2.89074 56.9604 0
      vertex 5 55 0
      vertex -2.56773 55.9663 0
    endloop
  endfacet
  facet normal 0 0 -1
    outer loop
      vertex 5 55 0
      vertex -2.56773 60.0337 0
      vertex -2.04508 60.9389 0
    endloop
  endfacet
  facet normal 0 0 -1
    outer loop
      vertex -3 58 0
      vertex 5 55 0
      vertex -2.89074 56.9604 0
    endloop
  endfacet
  facet normal 0 0 -1
    outer loop
      vertex 5 55 0
      vertex -2.89074 59.0396 0
      vertex -2.56773 60.0337 0
    endloop
  endfacet
  facet normal 0 0 -1
    outer loop
      vertex 5 55 0
      vertex -3 58 0
      vertex -2.89074 59.0396 0
    endloop
  endfacet
  facet normal -1 0 0
    outer loop
      vertex 0 56.5 0.799999
      vertex 0 60 50
      vertex 0 60 0.799999
    endloop
  endfacet
  facet normal -1 -0 0
    outer loop
      vertex 0 60 50
      vertex 0 56.5 0.799999
      vertex 0 56.5 50
    endloop
  endfacet
  facet normal -1 0 0
    outer loop
      vertex 0 0 0.799999
      vertex 0 3.5 50
      vertex 0 3.5 0.799999
    endloop
  endfacet
  facet normal -1 -0 0
    outer loop
      vertex 0 3.5 50
      vertex 0 0 0.799999
      vertex 0 0 50
    endloop
  endfacet
  facet normal -1 0 0
    outer loop
      vertex 0 53.4473 0
      vertex 0 6.55274 0
      vertex 0 53.4473 0.799999
    endloop
  endfacet
  facet normal -1 0 0
    outer loop
      vertex 0 53.4473 0.799999
      vertex 0 55.5 50
      vertex 0 55.5 0.799999
    endloop
  endfacet
  facet normal -1 0 0
    outer loop
      vertex 0 6.55274 0.799999
      vertex 0 53.4473 0.799999
      vertex 0 6.55274 0
    endloop
  endfacet
  facet normal -1 0 0
    outer loop
      vertex 0 53.4473 0.799999
      vertex 0 6.55274 0.799999
      vertex 0 55.5 50
    endloop
  endfacet
  facet normal -1 0 0
    outer loop
      vertex 0 4.5 50
      vertex 0 6.55274 0.799999
      vertex 0 4.5 0.799999
    endloop
  endfacet
  facet normal -1 0 0
    outer loop
      vertex 0 6.55274 0.799999
      vertex 0 4.5 50
      vertex 0 55.5 50
    endloop
  endfacet
  facet normal 0 1 -0
    outer loop
      vertex 3.5 60 0.799999
      vertex 0 60 50
      vertex 3.5 60 50
    endloop
  endfacet
  facet normal 0 1 0
    outer loop
      vertex 0 60 50
      vertex 3.5 60 0.799999
      vertex 0 60 0.799999
    endloop
  endfacet
  facet normal 0 1 -0
    outer loop
      vertex 60 60 0.799999
      vertex 56.5 60 50
      vertex 60 60 50
    endloop
  endfacet
  facet normal 0 1 0
    outer loop
      vertex 56.5 60 50
      vertex 60 60 0.799999
      vertex 56.5 60 0.799999
    endloop
  endfacet
  facet normal 0 1 -0
    outer loop
      vertex 53.4213 60 0
      vertex 6.57867 60 0.799999
      vertex 53.4213 60 0.799999
    endloop
  endfacet
  facet normal 0 1 0
    outer loop
      vertex 6.57867 60 0.799999
      vertex 53.4213 60 0
      vertex 6.57867 60 0
    endloop
  endfacet
  facet normal 0 1 0
    outer loop
      vertex 53.4213 60 0.799999
      vertex 55.5 60 50
      vertex 55.5 60 0.799999
    endloop
  endfacet
  facet normal 0 1 0
    outer loop
      vertex 55.5 60 50
      vertex 53.4213 60 0.799999
      vertex 4.5 60 50
    endloop
  endfacet
  facet normal 0 1 -0
    outer loop
      vertex 6.57867 60 0.799999
      vertex 4.5 60 50
      vertex 53.4213 60 0.799999
    endloop
  endfacet
  facet normal 0 1 0
    outer loop
      vertex 4.5 60 50
      vertex 6.57867 60 0.799999
      vertex 4.5 60 0.799999
    endloop
  endfacet
  facet normal 0 -1 0
    outer loop
      vertex 0 0 0.799999
      vertex 3.5 0 50
      vertex 0 0 50
    endloop
  endfacet
  facet normal 0 -1 -0
    outer loop
      vertex 3.5 0 50
      vertex 0 0 0.799999
      vertex 3.5 0 0.799999
    endloop
  endfacet
  facet normal 0 -1 0
    outer loop
      vertex 56.5 0 0.799999
      vertex 60 0 50
      vertex 56.5 0 50
    endloop
  endfacet
  facet normal 0 -1 -0
    outer loop
      vertex 60 0 50
      vertex 56.5 0 0.799999
      vertex 60 0 0.799999
    endloop
  endfacet
  facet normal 0 -1 0
    outer loop
      vertex 6.57867 0 0
      vertex 53.4213 0 0.799999
      vertex 6.57867 0 0.799999
    endloop
  endfacet
  facet normal 0 -1 -0
    outer loop
      vertex 53.4213 0 0.799999
      vertex 6.57867 0 0
      vertex 53.4213 0 0
    endloop
  endfacet
  facet normal 0 -1 0
    outer loop
      vertex 6.57867 0 0.799999
      vertex 4.5 0 50
      vertex 4.5 0 0.799999
    endloop
  endfacet
  facet normal 0 -1 0
    outer loop
      vertex 4.5 0 50
      vertex 6.57867 0 0.799999
      vertex 55.5 0 50
    endloop
  endfacet
  facet normal 0 -1 0
    outer loop
      vertex 53.4213 0 0.799999
      vertex 55.5 0 50
      vertex 6.57867 0 0.799999
    endloop
  endfacet
  facet normal 0 -1 -0
    outer loop
      vertex 55.5 0 50
      vertex 53.4213 0 0.799999
      vertex 55.5 0 0.799999
    endloop
  endfacet
  facet normal 1 -0 0
    outer loop
      vertex 4.5 25 50
      vertex 4.5 27 0
      vertex 4.5 27 50
    endloop
  endfacet
  facet normal 1 0 0
    outer loop
      vertex 4.5 27 0
      vertex 4.5 25 50
      vertex 4.5 25 0
    endloop
  endfacet
  facet normal 0 -1 0
    outer loop
      vertex 4.5 27 0
      vertex 5 27 50
      vertex 4.5 27 50
    endloop
  endfacet
  facet normal 0 -1 -0
    outer loop
      vertex 5 27 50
      vertex 4.5 27 0
      vertex 5 27 0
    endloop
  endfacet
  facet normal 0 1 -0
    outer loop
      vertex 5 25 0
      vertex 4.5 25 50
      vertex 5 25 50
    endloop
  endfacet
  facet normal 0 1 0
    outer loop
      vertex 4.5 25 50
      vertex 5 25 0
      vertex 4.5 25 0
    endloop
  endfacet
  facet normal -1 0 0
    outer loop
      vertex 55.5 29 0
      vertex 55.5 31 50
      vertex 55.5 31 0
    endloop
  endfacet
  facet normal -1 -0 0
    outer loop
      vertex 55.5 31 50
      vertex 55.5 29 0
      vertex 55.5 29 50
    endloop
  endfacet
  facet normal 0 -1 0
    outer loop
      vertex 55 31 0
      vertex 55.5 31 50
      vertex 55 31 50
    endloop
  endfacet
  facet normal 0 -1 -0
    outer loop
      vertex 55.5 31 50
      vertex 55 31 0
      vertex 55.5 31 0
    endloop
  endfacet
  facet normal 0 1 -0
    outer loop
      vertex 55.5 29 0
      vertex 55 29 50
      vertex 55.5 29 50
    endloop
  endfacet
  facet normal 0 1 0
    outer loop
      vertex 55 29 50
      vertex 55.5 29 0
      vertex 55 29 0
    endloop
  endfacet
  facet normal 0 1 -0
    outer loop
      vertex 31 4.5 0
      vertex 29 4.5 50
      vertex 31 4.5 50
    endloop
  endfacet
  facet normal 0 1 0
    outer loop
      vertex 29 4.5 50
      vertex 31 4.5 0
      vertex 29 4.5 0
    endloop
  endfacet
  facet normal 1 -0 0
    outer loop
      vertex 29 4.5 50
      vertex 29 5 0
      vertex 29 5 50
    endloop
  endfacet
  facet normal 1 0 0
    outer loop
      vertex 29 5 0
      vertex 29 4.5 50
      vertex 29 4.5 0
    endloop
  endfacet
  facet normal -1 0 0
    outer loop
      vertex 31 4.5 0
      vertex 31 5 50
      vertex 31 5 0
    endloop
  endfacet
  facet normal -1 -0 0
    outer loop
      vertex 31 5 50
      vertex 31 4.5 0
      vertex 31 4.5 50
    endloop
  endfacet
  facet normal 0 -1 0
    outer loop
      vertex 29 55.5 0
      vertex 31 55.5 50
      vertex 29 55.5 50
    endloop
  endfacet
  facet normal 0 -1 -0
    outer loop
      vertex 31 55.5 50
      vertex 29 55.5 0
      vertex 31 55.5 0
    endloop
  endfacet
  facet normal 1 -0 0
    outer loop
      vertex 29 55 50
      vertex 29 55.5 0
      vertex 29 55.5 50
    endloop
  endfacet
  facet normal 1 0 0
    outer loop
      vertex 29 55.5 0
      vertex 29 55 50
      vertex 29 55 0
    endloop
  endfacet
  facet normal -1 0 0
    outer loop
      vertex 31 55 0
      vertex 31 55.5 50
      vertex 31 55.5 0
    endloop
  endfacet
  facet normal -1 -0 0
    outer loop
      vertex 31 55.5 50
      vertex 31 55 0
      vertex 31 55 50
    endloop
  endfacet
  facet normal 0 -1 0
    outer loop
      vertex 0 4.5 0.799999
      vertex 1 4.5 50
      vertex 0 4.5 50
    endloop
  endfacet
  facet normal 0 -1 -0
    outer loop
      vertex 1 4.5 50
      vertex 0 4.5 0.799999
      vertex 1 4.5 0.799999
    endloop
  endfacet
  facet normal 0 1 -0
    outer loop
      vertex 1 3.5 0.799999
      vertex 0 3.5 50
      vertex 1 3.5 50
    endloop
  endfacet
  facet normal 0 1 0
    outer loop
      vertex 0 3.5 50
      vertex 1 3.5 0.799999
      vertex 0 3.5 0.799999
    endloop
  endfacet
  facet normal -1 0 0
    outer loop
      vertex 1 3.5 0.799999
      vertex 1 4.5 50
      vertex 1 4.5 0.799999
    endloop
  endfacet
  facet normal -1 -0 0
    outer loop
      vertex 1 4.5 50
      vertex 1 3.5 0.799999
      vertex 1 3.5 50
    endloop
  endfacet
  facet normal 0 1 -0
    outer loop
      vertex 1 55.5 0.799999
      vertex 0 55.5 50
      vertex 1 55.5 50
    endloop
  endfacet
  facet normal 0 1 0
    outer loop
      vertex 0 55.5 50
      vertex 1 55.5 0.799999
      vertex 0 55.5 0.799999
    endloop
  endfacet
  facet normal -1 0 0
    outer loop
      vertex 1 55.5 0.799999
      vertex 1 56.5 50
      vertex 1 56.5 0.799999
    endloop
  endfacet
  facet normal -1 -0 0
    outer loop
      vertex 1 56.5 50
      vertex 1 55.5 0.799999
      vertex 1 55.5 50
    endloop
  endfacet
  facet normal 0 -1 0
    outer loop
      vertex 0 56.5 0.799999
      vertex 1 56.5 50
      vertex 0 56.5 50
    endloop
  endfacet
  facet normal 0 -1 -0
    outer loop
      vertex 1 56.5 50
      vertex 0 56.5 0.799999
      vertex 1 56.5 0.799999
    endloop
  endfacet
  facet normal 0 -1 0
    outer loop
      vertex 59 4.5 0.799999
      vertex 60 4.5 50
      vertex 59 4.5 50
    endloop
  endfacet
  facet normal 0 -1 -0
    outer loop
      vertex 60 4.5 50
      vertex 59 4.5 0.799999
      vertex 60 4.5 0.799999
    endloop
  endfacet
  facet normal 0 1 -0
    outer loop
      vertex 60 3.5 0.799999
      vertex 59 3.5 50
      vertex 60 3.5 50
    endloop
  endfacet
  facet normal 0 1 0
    outer loop
      vertex 59 3.5 50
      vertex 60 3.5 0.799999
      vertex 59 3.5 0.799999
    endloop
  endfacet
  facet normal 1 -0 0
    outer loop
      vertex 59 3.5 50
      vertex 59 4.5 0.799999
      vertex 59 4.5 50
    endloop
  endfacet
  facet normal 1 0 0
    outer loop
      vertex 59 4.5 0.799999
      vertex 59 3.5 50
      vertex 59 3.5 0.799999
    endloop
  endfacet
  facet normal 0 1 -0
    outer loop
      vertex 60 55.5 0.799999
      vertex 59 55.5 50
      vertex 60 55.5 50
    endloop
  endfacet
  facet normal 0 1 0
    outer loop
      vertex 59 55.5 50
      vertex 60 55.5 0.799999
      vertex 59 55.5 0.799999
    endloop
  endfacet
  facet normal 1 -0 0
    outer loop
      vertex 59 55.5 50
      vertex 59 56.5 0.799999
      vertex 59 56.5 50
    endloop
  endfacet
  facet normal 1 0 0
    outer loop
      vertex 59 56.5 0.799999
      vertex 59 55.5 50
      vertex 59 55.5 0.799999
    endloop
  endfacet
  facet normal 0 -1 0
    outer loop
      vertex 59 56.5 0.799999
      vertex 60 56.5 50
      vertex 59 56.5 50
    endloop
  endfacet
  facet normal 0 -1 -0
    outer loop
      vertex 60 56.5 50
      vertex 59 56.5 0.799999
      vertex 60 56.5 0.799999
    endloop
  endfacet
  facet normal -1 0 0
    outer loop
      vertex 4.5 0 0.799999
      vertex 4.5 1 50
      vertex 4.5 1 0.799999
    endloop
  endfacet
  facet normal -1 -0 0
    outer loop
      vertex 4.5 1 50
      vertex 4.5 0 0.799999
      vertex 4.5 0 50
    endloop
  endfacet
  facet normal 1 -0 0
    outer loop
      vertex 3.5 0 50
      vertex 3.5 1 0.799999
      vertex 3.5 1 50
    endloop
  endfacet
  facet normal 1 0 0
    outer loop
      vertex 3.5 1 0.799999
      vertex 3.5 0 50
      vertex 3.5 0 0.799999
    endloop
  endfacet
  facet normal 0 -1 0
    outer loop
      vertex 3.5 1 0.799999
      vertex 4.5 1 50
      vertex 3.5 1 50
    endloop
  endfacet
  facet normal 0 -1 -0
    outer loop
      vertex 4.5 1 50
      vertex 3.5 1 0.799999
      vertex 4.5 1 0.799999
    endloop
  endfacet
  facet normal -1 0 0
    outer loop
      vertex 56.5 0 0.799999
      vertex 56.5 1 50
      vertex 56.5 1 0.799999
    endloop
  endfacet
  facet normal -1 -0 0
    outer loop
      vertex 56.5 1 50
      vertex 56.5 0 0.799999
      vertex 56.5 0 50
    endloop
  endfacet
  facet normal 1 -0 0
    outer loop
      vertex 55.5 0 50
      vertex 55.5 1 0.799999
      vertex 55.5 1 50
    endloop
  endfacet
  facet normal 1 0 0
    outer loop
      vertex 55.5 1 0.799999
      vertex 55.5 0 50
      vertex 55.5 0 0.799999
    endloop
  endfacet
  facet normal 0 -1 0
    outer loop
      vertex 55.5 1 0.799999
      vertex 56.5 1 50
      vertex 55.5 1 50
    endloop
  endfacet
  facet normal 0 -1 -0
    outer loop
      vertex 56.5 1 50
      vertex 55.5 1 0.799999
      vertex 56.5 1 0.799999
    endloop
  endfacet
  facet normal -1 0 0
    outer loop
      vertex 4.5 59 0.799999
      vertex 4.5 60 50
      vertex 4.5 60 0.799999
    endloop
  endfacet
  facet normal -1 -0 0
    outer loop
      vertex 4.5 60 50
      vertex 4.5 59 0.799999
      vertex 4.5 59 50
    endloop
  endfacet
  facet normal 1 -0 0
    outer loop
      vertex 3.5 59 50
      vertex 3.5 60 0.799999
      vertex 3.5 60 50
    endloop
  endfacet
  facet normal 1 0 0
    outer loop
      vertex 3.5 60 0.799999
      vertex 3.5 59 50
      vertex 3.5 59 0.799999
    endloop
  endfacet
  facet normal 0 1 -0
    outer loop
      vertex 4.5 59 0.799999
      vertex 3.5 59 50
      vertex 4.5 59 50
    endloop
  endfacet
  facet normal 0 1 0
    outer loop
      vertex 3.5 59 50
      vertex 4.5 59 0.799999
      vertex 3.5 59 0.799999
    endloop
  endfacet
  facet normal -1 0 0
    outer loop
      vertex 56.5 59 0.799999
      vertex 56.5 60 50
      vertex 56.5 60 0.799999
    endloop
  endfacet
  facet normal -1 -0 0
    outer loop
      vertex 56.5 60 50
      vertex 56.5 59 0.799999
      vertex 56.5 59 50
    endloop
  endfacet
  facet normal 1 -0 0
    outer loop
      vertex 55.5 59 50
      vertex 55.5 60 0.799999
      vertex 55.5 60 50
    endloop
  endfacet
  facet normal 1 0 0
    outer loop
      vertex 55.5 60 0.799999
      vertex 55.5 59 50
      vertex 55.5 59 0.799999
    endloop
  endfacet
  facet normal 0 1 -0
    outer loop
      vertex 56.5 59 0.799999
      vertex 55.5 59 50
      vertex 56.5 59 50
    endloop
  endfacet
  facet normal 0 1 0
    outer loop
      vertex 55.5 59 50
      vertex 56.5 59 0.799999
      vertex 55.5 59 0.799999
    endloop
  endfacet
  facet normal 0.40673 -0.913548 0
    outer loop
      vertex 3.54508 -2.75528 0
      vertex 4.5 -2.33013 0.799999
      vertex 3.54508 -2.75528 0.799999
    endloop
  endfacet
  facet normal 0.40673 -0.913548 0
    outer loop
      vertex 4.5 -2.33013 0.799999
      vertex 3.54508 -2.75528 0
      vertex 4.5 -2.33013 0
    endloop
  endfacet
  facet normal -0.587791 0.809013 0
    outer loop
      vertex -0.5 6.33013 0
      vertex -1.34565 5.71572 0.799999
      vertex -0.5 6.33013 0.799999
    endloop
  endfacet
  facet normal -0.587791 0.809013 0
    outer loop
      vertex -1.34565 5.71572 0.799999
      vertex -0.5 6.33013 0
      vertex -1.34565 5.71572 0
    endloop
  endfacet
  facet normal -0.40673 0.913548 0
    outer loop
      vertex 0 6.55274 0
      vertex -0.5 6.33013 0.799999
      vertex 0 6.55274 0.799999
    endloop
  endfacet
  facet normal -0.40673 0.913548 0
    outer loop
      vertex -0.5 6.33013 0.799999
      vertex 0 6.55274 0
      vertex -0.5 6.33013 0
    endloop
  endfacet
  facet normal -0.207914 -0.978147 0
    outer loop
      vertex 0.454914 -2.75528 0
      vertex 1.47736 -2.97261 0.799999
      vertex 0.454914 -2.75528 0.799999
    endloop
  endfacet
  facet normal -0.207914 -0.978147 -0
    outer loop
      vertex 1.47736 -2.97261 0.799999
      vertex 0.454914 -2.75528 0
      vertex 1.47736 -2.97261 0
    endloop
  endfacet
  facet normal -0.994522 -0.104527 0
    outer loop
      vertex -2.89074 0.960441 0
      vertex -3 2 0.799999
      vertex -3 2 0
    endloop
  endfacet
  facet normal -0.994522 -0.104527 0
    outer loop
      vertex -3 2 0.799999
      vertex -2.89074 0.960441 0
      vertex -2.89074 0.960441 0.799999
    endloop
  endfacet
  facet normal -0.951057 -0.309017 0
    outer loop
      vertex -2.56773 -0.0336828 0
      vertex -2.89074 0.960441 0.799999
      vertex -2.89074 0.960441 0
    endloop
  endfacet
  facet normal -0.951057 -0.309017 0
    outer loop
      vertex -2.89074 0.960441 0.799999
      vertex -2.56773 -0.0336828 0
      vertex -2.56773 -0.0336828 0.799999
    endloop
  endfacet
  facet normal 0.951091 -0.30891 0
    outer loop
      vertex 6.56773 -0.0336828 0.799999
      vertex 6.57867 0 0
      vertex 6.57867 0 0.799999
    endloop
  endfacet
  facet normal 0.951091 -0.30891 0
    outer loop
      vertex 6.57867 0 0
      vertex 6.56773 -0.0336828 0.799999
      vertex 6.56773 -0.0336828 0
    endloop
  endfacet
  facet normal -0.743142 0.669133 0
    outer loop
      vertex -2.04508 4.93893 0
      vertex -1.34565 5.71572 0.799999
      vertex -1.34565 5.71572 0
    endloop
  endfacet
  facet normal -0.743142 0.669133 0
    outer loop
      vertex -1.34565 5.71572 0.799999
      vertex -2.04508 4.93893 0
      vertex -2.04508 4.93893 0.799999
    endloop
  endfacet
  facet normal 0.743144 -0.669131 0
    outer loop
      vertex 5.34565 -1.71572 0.799999
      vertex 6.04508 -0.938926 0
      vertex 6.04508 -0.938926 0.799999
    endloop
  endfacet
  facet normal 0.743144 -0.669131 0
    outer loop
      vertex 6.04508 -0.938926 0
      vertex 5.34565 -1.71572 0.799999
      vertex 5.34565 -1.71572 0
    endloop
  endfacet
  facet normal -0.406733 -0.913547 0
    outer loop
      vertex -0.5 -2.33013 0
      vertex 0.454914 -2.75528 0.799999
      vertex -0.5 -2.33013 0.799999
    endloop
  endfacet
  facet normal -0.406733 -0.913547 -0
    outer loop
      vertex 0.454914 -2.75528 0.799999
      vertex -0.5 -2.33013 0
      vertex 0.454914 -2.75528 0
    endloop
  endfacet
  facet normal -0 0 1
    outer loop
      vertex -0.5 6.33013 0.799999
      vertex 0 4.5 0.799999
      vertex 0 6.55274 0.799999
    endloop
  endfacet
  facet normal -0 0 1
    outer loop
      vertex -1.34565 5.71572 0.799999
      vertex 0 4.5 0.799999
      vertex -0.5 6.33013 0.799999
    endloop
  endfacet
  facet normal -0 0 1
    outer loop
      vertex -2.04508 4.93893 0.799999
      vertex 0 4.5 0.799999
      vertex -1.34565 5.71572 0.799999
    endloop
  endfacet
  facet normal -0 0 1
    outer loop
      vertex 0 4.5 0.799999
      vertex 1 3.5 0.799999
      vertex 1 4.5 0.799999
    endloop
  endfacet
  facet normal 0 0 1
    outer loop
      vertex 1 3.5 0.799999
      vertex 0 4.5 0.799999
      vertex 0 3.5 0.799999
    endloop
  endfacet
  facet normal 0 0 1
    outer loop
      vertex 3.5 0 0.799999
      vertex 4.5 0 0.799999
      vertex 4.5 1 0.799999
    endloop
  endfacet
  facet normal 0 0 1
    outer loop
      vertex 4.5 0 0.799999
      vertex 3.5 0 0.799999
      vertex 4.5 -2.33013 0.799999
    endloop
  endfacet
  facet normal 0 0 1
    outer loop
      vertex 3.5 0 0.799999
      vertex 4.5 1 0.799999
      vertex 3.5 1 0.799999
    endloop
  endfacet
  facet normal 0 0 1
    outer loop
      vertex 4.5 -2.33013 0.799999
      vertex 3.5 0 0.799999
      vertex 3.54508 -2.75528 0.799999
    endloop
  endfacet
  facet normal 0 0 1
    outer loop
      vertex 3.5 0 0.799999
      vertex 2.52264 -2.97261 0.799999
      vertex 3.54508 -2.75528 0.799999
    endloop
  endfacet
  facet normal 0 0 1
    outer loop
      vertex 3.5 0 0.799999
      vertex 1.47736 -2.97261 0.799999
      vertex 2.52264 -2.97261 0.799999
    endloop
  endfacet
  facet normal -0 0 1
    outer loop
      vertex 0 0 0.799999
      vertex 1.47736 -2.97261 0.799999
      vertex 3.5 0 0.799999
    endloop
  endfacet
  facet normal 0 0 1
    outer loop
      vertex 1.47736 -2.97261 0.799999
      vertex 0 0 0.799999
      vertex 0.454914 -2.75528 0.799999
    endloop
  endfacet
  facet normal 0 0 1
    outer loop
      vertex 0 0 0.799999
      vertex -0.5 -2.33013 0.799999
      vertex 0.454914 -2.75528 0.799999
    endloop
  endfacet
  facet normal 0 0 1
    outer loop
      vertex 0 4.5 0.799999
      vertex -2.04508 4.93893 0.799999
      vertex 0 3.5 0.799999
    endloop
  endfacet
  facet normal -0 0 1
    outer loop
      vertex -2.56773 4.03368 0.799999
      vertex 0 3.5 0.799999
      vertex -2.04508 4.93893 0.799999
    endloop
  endfacet
  facet normal 0 0 1
    outer loop
      vertex 0 0 0.799999
      vertex -1.34565 -1.71572 0.799999
      vertex -0.5 -2.33013 0.799999
    endloop
  endfacet
  facet normal 0 0 1
    outer loop
      vertex -2.89074 3.03956 0.799999
      vertex 0 3.5 0.799999
      vertex -2.56773 4.03368 0.799999
    endloop
  endfacet
  facet normal 0 0 1
    outer loop
      vertex 0 0 0.799999
      vertex -2.04508 -0.938926 0.799999
      vertex -1.34565 -1.71572 0.799999
    endloop
  endfacet
  facet normal 0 0 1
    outer loop
      vertex -3 2 0.799999
      vertex 0 3.5 0.799999
      vertex -2.89074 3.03956 0.799999
    endloop
  endfacet
  facet normal 0 0 1
    outer loop
      vertex 0 0 0.799999
      vertex -2.56773 -0.0336828 0.799999
      vertex -2.04508 -0.938926 0.799999
    endloop
  endfacet
  facet normal 0 0 1
    outer loop
      vertex 0 3.5 0.799999
      vertex -3 2 0.799999
      vertex 0 0 0.799999
    endloop
  endfacet
  facet normal 0 0 1
    outer loop
      vertex 0 0 0.799999
      vertex -2.89074 0.960441 0.799999
      vertex -2.56773 -0.0336828 0.799999
    endloop
  endfacet
  facet normal 0 0 1
    outer loop
      vertex 0 0 0.799999
      vertex -3 2 0.799999
      vertex -2.89074 0.960441 0.799999
    endloop
  endfacet
  facet normal -0 0 1
    outer loop
      vertex 4.5 0 0.799999
      vertex 6.56773 -0.0336828 0.799999
      vertex 6.57867 0 0.799999
    endloop
  endfacet
  facet normal 0 0 1
    outer loop
      vertex 6.56773 -0.0336828 0.799999
      vertex 4.5 0 0.799999
      vertex 6.04508 -0.938926 0.799999
    endloop
  endfacet
  facet normal 0 0 1
    outer loop
      vertex 6.04508 -0.938926 0.799999
      vertex 4.5 0 0.799999
      vertex 5.34565 -1.71572 0.799999
    endloop
  endfacet
  facet normal 0 0 1
    outer loop
      vertex 5.34565 -1.71572 0.799999
      vertex 4.5 0 0.799999
      vertex 4.5 -2.33013 0.799999
    endloop
  endfacet
  facet normal 0.207915 -0.978147 0
    outer loop
      vertex 2.52264 -2.97261 0
      vertex 3.54508 -2.75528 0.799999
      vertex 2.52264 -2.97261 0.799999
    endloop
  endfacet
  facet normal 0.207915 -0.978147 0
    outer loop
      vertex 3.54508 -2.75528 0.799999
      vertex 2.52264 -2.97261 0
      vertex 3.54508 -2.75528 0
    endloop
  endfacet
  facet normal -0.951056 0.309018 0
    outer loop
      vertex -2.89074 3.03956 0
      vertex -2.56773 4.03368 0.799999
      vertex -2.56773 4.03368 0
    endloop
  endfacet
  facet normal -0.951056 0.309018 0
    outer loop
      vertex -2.56773 4.03368 0.799999
      vertex -2.89074 3.03956 0
      vertex -2.89074 3.03956 0.799999
    endloop
  endfacet
  facet normal 0.587791 -0.809013 0
    outer loop
      vertex 4.5 -2.33013 0
      vertex 5.34565 -1.71572 0.799999
      vertex 4.5 -2.33013 0.799999
    endloop
  endfacet
  facet normal 0.587791 -0.809013 0
    outer loop
      vertex 5.34565 -1.71572 0.799999
      vertex 4.5 -2.33013 0
      vertex 5.34565 -1.71572 0
    endloop
  endfacet
  facet normal -0.866022 -0.500005 0
    outer loop
      vertex -2.04508 -0.938926 0
      vertex -2.56773 -0.0336828 0.799999
      vertex -2.56773 -0.0336828 0
    endloop
  endfacet
  facet normal -0.866022 -0.500005 0
    outer loop
      vertex -2.56773 -0.0336828 0.799999
      vertex -2.04508 -0.938926 0
      vertex -2.04508 -0.938926 0.799999
    endloop
  endfacet
  facet normal 0 -1 0
    outer loop
      vertex 1.47736 -2.97261 0
      vertex 2.52264 -2.97261 0.799999
      vertex 1.47736 -2.97261 0.799999
    endloop
  endfacet
  facet normal 0 -1 -0
    outer loop
      vertex 2.52264 -2.97261 0.799999
      vertex 1.47736 -2.97261 0
      vertex 2.52264 -2.97261 0
    endloop
  endfacet
  facet normal 0.866022 -0.500005 0
    outer loop
      vertex 6.04508 -0.938926 0.799999
      vertex 6.56773 -0.0336828 0
      vertex 6.56773 -0.0336828 0.799999
    endloop
  endfacet
  facet normal 0.866022 -0.500005 0
    outer loop
      vertex 6.56773 -0.0336828 0
      vertex 6.04508 -0.938926 0.799999
      vertex 6.04508 -0.938926 0
    endloop
  endfacet
  facet normal -0.866024 0.500003 0
    outer loop
      vertex -2.56773 4.03368 0
      vertex -2.04508 4.93893 0.799999
      vertex -2.04508 4.93893 0
    endloop
  endfacet
  facet normal -0.866024 0.500003 0
    outer loop
      vertex -2.04508 4.93893 0.799999
      vertex -2.56773 4.03368 0
      vertex -2.56773 4.03368 0.799999
    endloop
  endfacet
  facet normal -0.743144 -0.669131 0
    outer loop
      vertex -1.34565 -1.71572 0
      vertex -2.04508 -0.938926 0.799999
      vertex -2.04508 -0.938926 0
    endloop
  endfacet
  facet normal -0.743144 -0.669131 0
    outer loop
      vertex -2.04508 -0.938926 0.799999
      vertex -1.34565 -1.71572 0
      vertex -1.34565 -1.71572 0.799999
    endloop
  endfacet
  facet normal -0.587791 -0.809013 0
    outer loop
      vertex -1.34565 -1.71572 0
      vertex -0.5 -2.33013 0.799999
      vertex -1.34565 -1.71572 0.799999
    endloop
  endfacet
  facet normal -0.587791 -0.809013 -0
    outer loop
      vertex -0.5 -2.33013 0.799999
      vertex -1.34565 -1.71572 0
      vertex -0.5 -2.33013 0
    endloop
  endfacet
  facet normal -0.994522 0.104526 0
    outer loop
      vertex -3 2 0
      vertex -2.89074 3.03956 0.799999
      vertex -2.89074 3.03956 0
    endloop
  endfacet
  facet normal -0.994522 0.104526 0
    outer loop
      vertex -2.89074 3.03956 0.799999
      vertex -3 2 0
      vertex -3 2 0.799999
    endloop
  endfacet
  facet normal -0.207903 -0.978149 0
    outer loop
      vertex 56.4549 -2.75528 0
      vertex 57.4774 -2.97261 0.799999
      vertex 56.4549 -2.75528 0.799999
    endloop
  endfacet
  facet normal -0.207903 -0.978149 -0
    outer loop
      vertex 57.4774 -2.97261 0.799999
      vertex 56.4549 -2.75528 0
      vertex 57.4774 -2.97261 0
    endloop
  endfacet
  facet normal 0.951059 0.309009 0
    outer loop
      vertex 62.8907 3.03956 0.799999
      vertex 62.5677 4.03368 0
      vertex 62.5677 4.03368 0.799999
    endloop
  endfacet
  facet normal 0.951059 0.309009 0
    outer loop
      vertex 62.5677 4.03368 0
      vertex 62.8907 3.03956 0.799999
      vertex 62.8907 3.03956 0
    endloop
  endfacet
  facet normal 0.994518 0.104564 0
    outer loop
      vertex 63 2 0.799999
      vertex 62.8907 3.03956 0
      vertex 62.8907 3.03956 0.799999
    endloop
  endfacet
  facet normal 0.994518 0.104564 0
    outer loop
      vertex 62.8907 3.03956 0
      vertex 63 2 0.799999
      vertex 63 2 0
    endloop
  endfacet
  facet normal 0.866045 0.499967 0
    outer loop
      vertex 62.5677 4.03368 0.799999
      vertex 62.0451 4.93893 0
      vertex 62.0451 4.93893 0.799999
    endloop
  endfacet
  facet normal 0.866045 0.499967 0
    outer loop
      vertex 62.0451 4.93893 0
      vertex 62.5677 4.03368 0.799999
      vertex 62.5677 4.03368 0
    endloop
  endfacet
  facet normal 0.406738 -0.913545 0
    outer loop
      vertex 59.5451 -2.75528 0
      vertex 60.5 -2.33013 0.799999
      vertex 59.5451 -2.75528 0.799999
    endloop
  endfacet
  facet normal 0.406738 -0.913545 0
    outer loop
      vertex 60.5 -2.33013 0.799999
      vertex 59.5451 -2.75528 0
      vertex 60.5 -2.33013 0
    endloop
  endfacet
  facet normal 0.994518 -0.104564 0
    outer loop
      vertex 62.8907 0.960441 0.799999
      vertex 63 2 0
      vertex 63 2 0.799999
    endloop
  endfacet
  facet normal 0.994518 -0.104564 0
    outer loop
      vertex 63 2 0
      vertex 62.8907 0.960441 0.799999
      vertex 62.8907 0.960441 0
    endloop
  endfacet
  facet normal -0.406738 -0.913545 0
    outer loop
      vertex 55.5 -2.33013 0
      vertex 56.4549 -2.75528 0.799999
      vertex 55.5 -2.33013 0.799999
    endloop
  endfacet
  facet normal -0.406738 -0.913545 -0
    outer loop
      vertex 56.4549 -2.75528 0.799999
      vertex 55.5 -2.33013 0
      vertex 56.4549 -2.75528 0
    endloop
  endfacet
  facet normal 0.866043 -0.49997 0
    outer loop
      vertex 62.0451 -0.938926 0.799999
      vertex 62.5677 -0.0336828 0
      vertex 62.5677 -0.0336828 0.799999
    endloop
  endfacet
  facet normal 0.866043 -0.49997 0
    outer loop
      vertex 62.5677 -0.0336828 0
      vertex 62.0451 -0.938926 0.799999
      vertex 62.0451 -0.938926 0
    endloop
  endfacet
  facet normal -0.587768 -0.809029 0
    outer loop
      vertex 54.6543 -1.71572 0
      vertex 55.5 -2.33013 0.799999
      vertex 54.6543 -1.71572 0.799999
    endloop
  endfacet
  facet normal -0.587768 -0.809029 -0
    outer loop
      vertex 55.5 -2.33013 0.799999
      vertex 54.6543 -1.71572 0
      vertex 55.5 -2.33013 0
    endloop
  endfacet
  facet normal 0.743158 -0.669116 0
    outer loop
      vertex 61.3457 -1.71572 0.799999
      vertex 62.0451 -0.938926 0
      vertex 62.0451 -0.938926 0.799999
    endloop
  endfacet
  facet normal 0.743158 -0.669116 0
    outer loop
      vertex 62.0451 -0.938926 0
      vertex 61.3457 -1.71572 0.799999
      vertex 61.3457 -1.71572 0
    endloop
  endfacet
  facet normal 0 -1 0
    outer loop
      vertex 57.4774 -2.97261 0
      vertex 58.5226 -2.97261 0.799999
      vertex 57.4774 -2.97261 0.799999
    endloop
  endfacet
  facet normal 0 -1 -0
    outer loop
      vertex 58.5226 -2.97261 0.799999
      vertex 57.4774 -2.97261 0
      vertex 58.5226 -2.97261 0
    endloop
  endfacet
  facet normal 0.951059 -0.309008 0
    outer loop
      vertex 62.5677 -0.0336828 0.799999
      vertex 62.8907 0.960441 0
      vertex 62.8907 0.960441 0.799999
    endloop
  endfacet
  facet normal 0.951059 -0.309008 0
    outer loop
      vertex 62.8907 0.960441 0
      vertex 62.5677 -0.0336828 0.799999
      vertex 62.5677 -0.0336828 0
    endloop
  endfacet
  facet normal -0.950593 -0.310441 0
    outer loop
      vertex 53.4323 -0.0336828 0
      vertex 53.4213 0 0.799999
      vertex 53.4213 0 0
    endloop
  endfacet
  facet normal -0.950593 -0.310441 0
    outer loop
      vertex 53.4213 0 0.799999
      vertex 53.4323 -0.0336828 0
      vertex 53.4323 -0.0336828 0.799999
    endloop
  endfacet
  facet normal 0.40673 0.913548 -0
    outer loop
      vertex 60.5 6.33013 0
      vertex 60 6.55274 0.799999
      vertex 60.5 6.33013 0.799999
    endloop
  endfacet
  facet normal 0.40673 0.913548 0
    outer loop
      vertex 60 6.55274 0.799999
      vertex 60.5 6.33013 0
      vertex 60 6.55274 0
    endloop
  endfacet
  facet normal 0.587768 -0.809029 0
    outer loop
      vertex 60.5 -2.33013 0
      vertex 61.3457 -1.71572 0.799999
      vertex 60.5 -2.33013 0.799999
    endloop
  endfacet
  facet normal 0.587768 -0.809029 0
    outer loop
      vertex 61.3457 -1.71572 0.799999
      vertex 60.5 -2.33013 0
      vertex 61.3457 -1.71572 0
    endloop
  endfacet
  facet normal -0.743158 -0.669116 0
    outer loop
      vertex 54.6543 -1.71572 0
      vertex 53.9549 -0.938926 0.799999
      vertex 53.9549 -0.938926 0
    endloop
  endfacet
  facet normal -0.743158 -0.669116 0
    outer loop
      vertex 53.9549 -0.938926 0.799999
      vertex 54.6543 -1.71572 0
      vertex 54.6543 -1.71572 0.799999
    endloop
  endfacet
  facet normal 0.743157 0.669117 0
    outer loop
      vertex 62.0451 4.93893 0.799999
      vertex 61.3457 5.71572 0
      vertex 61.3457 5.71572 0.799999
    endloop
  endfacet
  facet normal 0.743157 0.669117 0
    outer loop
      vertex 61.3457 5.71572 0
      vertex 62.0451 4.93893 0.799999
      vertex 62.0451 4.93893 0
    endloop
  endfacet
  facet normal 0.587768 0.809029 -0
    outer loop
      vertex 61.3457 5.71572 0
      vertex 60.5 6.33013 0.799999
      vertex 61.3457 5.71572 0.799999
    endloop
  endfacet
  facet normal 0.587768 0.809029 0
    outer loop
      vertex 60.5 6.33013 0.799999
      vertex 61.3457 5.71572 0
      vertex 60.5 6.33013 0
    endloop
  endfacet
  facet normal 0.207903 -0.978149 0
    outer loop
      vertex 58.5226 -2.97261 0
      vertex 59.5451 -2.75528 0.799999
      vertex 58.5226 -2.97261 0.799999
    endloop
  endfacet
  facet normal 0.207903 -0.978149 0
    outer loop
      vertex 59.5451 -2.75528 0.799999
      vertex 58.5226 -2.97261 0
      vertex 59.5451 -2.75528 0
    endloop
  endfacet
  facet normal -0.866043 -0.49997 0
    outer loop
      vertex 53.9549 -0.938926 0
      vertex 53.4323 -0.0336828 0.799999
      vertex 53.4323 -0.0336828 0
    endloop
  endfacet
  facet normal -0.866043 -0.49997 0
    outer loop
      vertex 53.4323 -0.0336828 0.799999
      vertex 53.9549 -0.938926 0
      vertex 53.9549 -0.938926 0.799999
    endloop
  endfacet
  facet normal -0 0 1
    outer loop
      vertex 59 4.5 0.799999
      vertex 60 3.5 0.799999
      vertex 60 4.5 0.799999
    endloop
  endfacet
  facet normal 0 0 1
    outer loop
      vertex 60 3.5 0.799999
      vertex 59 4.5 0.799999
      vertex 59 3.5 0.799999
    endloop
  endfacet
  facet normal 0 0 1
    outer loop
      vertex 60 3.5 0.799999
      vertex 63 2 0.799999
      vertex 62.8907 3.03956 0.799999
    endloop
  endfacet
  facet normal -0 0 1
    outer loop
      vertex 60 3.5 0.799999
      vertex 62.8907 3.03956 0.799999
      vertex 62.5677 4.03368 0.799999
    endloop
  endfacet
  facet normal 0 0 1
    outer loop
      vertex 60 0 0.799999
      vertex 63 2 0.799999
      vertex 60 3.5 0.799999
    endloop
  endfacet
  facet normal 0 0 1
    outer loop
      vertex 60 3.5 0.799999
      vertex 62.5677 4.03368 0.799999
      vertex 62.0451 4.93893 0.799999
    endloop
  endfacet
  facet normal 0 0 1
    outer loop
      vertex 63 2 0.799999
      vertex 60 0 0.799999
      vertex 62.8907 0.960441 0.799999
    endloop
  endfacet
  facet normal 0 0 1
    outer loop
      vertex 60 4.5 0.799999
      vertex 62.0451 4.93893 0.799999
      vertex 61.3457 5.71572 0.799999
    endloop
  endfacet
  facet normal 0 0 1
    outer loop
      vertex 62.8907 0.960441 0.799999
      vertex 60 0 0.799999
      vertex 62.5677 -0.0336828 0.799999
    endloop
  endfacet
  facet normal 0 0 1
    outer loop
      vertex 60 4.5 0.799999
      vertex 61.3457 5.71572 0.799999
      vertex 60.5 6.33013 0.799999
    endloop
  endfacet
  facet normal 0 0 1
    outer loop
      vertex 62.5677 -0.0336828 0.799999
      vertex 60 0 0.799999
      vertex 62.0451 -0.938926 0.799999
    endloop
  endfacet
  facet normal 0 0 1
    outer loop
      vertex 60 4.5 0.799999
      vertex 60.5 6.33013 0.799999
      vertex 60 6.55274 0.799999
    endloop
  endfacet
  facet normal 0 0 1
    outer loop
      vertex 62.0451 4.93893 0.799999
      vertex 60 4.5 0.799999
      vertex 60 3.5 0.799999
    endloop
  endfacet
  facet normal 0 0 1
    outer loop
      vertex 62.0451 -0.938926 0.799999
      vertex 60 0 0.799999
      vertex 61.3457 -1.71572 0.799999
    endloop
  endfacet
  facet normal 0 0 1
    outer loop
      vertex 61.3457 -1.71572 0.799999
      vertex 60 0 0.799999
      vertex 60.5 -2.33013 0.799999
    endloop
  endfacet
  facet normal 0 0 1
    outer loop
      vertex 60 0 0.799999
      vertex 59.5451 -2.75528 0.799999
      vertex 60.5 -2.33013 0.799999
    endloop
  endfacet
  facet normal 0 0 1
    outer loop
      vertex 60 0 0.799999
      vertex 58.5226 -2.97261 0.799999
      vertex 59.5451 -2.75528 0.799999
    endloop
  endfacet
  facet normal -0 0 1
    outer loop
      vertex 56.5 0 0.799999
      vertex 58.5226 -2.97261 0.799999
      vertex 60 0 0.799999
    endloop
  endfacet
  facet normal 0 0 1
    outer loop
      vertex 58.5226 -2.97261 0.799999
      vertex 56.5 0 0.799999
      vertex 57.4774 -2.97261 0.799999
    endloop
  endfacet
  facet normal 0 0 1
    outer loop
      vertex 57.4774 -2.97261 0.799999
      vertex 56.5 0 0.799999
      vertex 56.4549 -2.75528 0.799999
    endloop
  endfacet
  facet normal 0 0 1
    outer loop
      vertex 55.5 0 0.799999
      vertex 56.5 0 0.799999
      vertex 56.5 1 0.799999
    endloop
  endfacet
  facet normal 0 0 1
    outer loop
      vertex 55.5 0 0.799999
      vertex 56.5 1 0.799999
      vertex 55.5 1 0.799999
    endloop
  endfacet
  facet normal 0 0 1
    outer loop
      vertex 55.5 -2.33013 0.799999
      vertex 56.5 0 0.799999
      vertex 55.5 0 0.799999
    endloop
  endfacet
  facet normal 0 0 1
    outer loop
      vertex 56.5 0 0.799999
      vertex 55.5 -2.33013 0.799999
      vertex 56.4549 -2.75528 0.799999
    endloop
  endfacet
  facet normal 0 0 1
    outer loop
      vertex 55.5 0 0.799999
      vertex 54.6543 -1.71572 0.799999
      vertex 55.5 -2.33013 0.799999
    endloop
  endfacet
  facet normal 0 0 1
    outer loop
      vertex 55.5 0 0.799999
      vertex 53.9549 -0.938926 0.799999
      vertex 54.6543 -1.71572 0.799999
    endloop
  endfacet
  facet normal 0 0 1
    outer loop
      vertex 55.5 0 0.799999
      vertex 53.4323 -0.0336828 0.799999
      vertex 53.9549 -0.938926 0.799999
    endloop
  endfacet
  facet normal 0 -0 1
    outer loop
      vertex 53.4323 -0.0336828 0.799999
      vertex 55.5 0 0.799999
      vertex 53.4213 0 0.799999
    endloop
  endfacet
  facet normal 0.951138 0.308767 0
    outer loop
      vertex 6.57867 60 0.799999
      vertex 6.56773 60.0337 0
      vertex 6.56773 60.0337 0.799999
    endloop
  endfacet
  facet normal 0.951138 0.308767 0
    outer loop
      vertex 6.56773 60.0337 0
      vertex 6.57867 60 0.799999
      vertex 6.57867 60 0
    endloop
  endfacet
  facet normal 0.866012 0.500023 0
    outer loop
      vertex 6.56773 60.0337 0.799999
      vertex 6.04508 60.9389 0
      vertex 6.04508 60.9389 0.799999
    endloop
  endfacet
  facet normal 0.866012 0.500023 0
    outer loop
      vertex 6.04508 60.9389 0
      vertex 6.56773 60.0337 0.799999
      vertex 6.56773 60.0337 0
    endloop
  endfacet
  facet normal -0.587785 0.809017 0
    outer loop
      vertex -0.5 62.3301 0
      vertex -1.34565 61.7157 0.799999
      vertex -0.5 62.3301 0.799999
    endloop
  endfacet
  facet normal -0.587785 0.809017 0
    outer loop
      vertex -1.34565 61.7157 0.799999
      vertex -0.5 62.3301 0
      vertex -1.34565 61.7157 0
    endloop
  endfacet
  facet normal -0.587785 -0.809017 0
    outer loop
      vertex -1.34565 54.2843 0
      vertex -0.5 53.6699 0.799999
      vertex -1.34565 54.2843 0.799999
    endloop
  endfacet
  facet normal -0.587785 -0.809017 -0
    outer loop
      vertex -0.5 53.6699 0.799999
      vertex -1.34565 54.2843 0
      vertex -0.5 53.6699 0
    endloop
  endfacet
  facet normal -0.207886 0.978153 0
    outer loop
      vertex 1.47736 62.9726 0
      vertex 0.454914 62.7553 0.799999
      vertex 1.47736 62.9726 0.799999
    endloop
  endfacet
  facet normal -0.207886 0.978153 0
    outer loop
      vertex 0.454914 62.7553 0.799999
      vertex 1.47736 62.9726 0
      vertex 0.454914 62.7553 0
    endloop
  endfacet
  facet normal 0.207888 0.978153 -0
    outer loop
      vertex 3.54508 62.7553 0
      vertex 2.52264 62.9726 0.799999
      vertex 3.54508 62.7553 0.799999
    endloop
  endfacet
  facet normal 0.207888 0.978153 0
    outer loop
      vertex 2.52264 62.9726 0.799999
      vertex 3.54508 62.7553 0
      vertex 2.52264 62.9726 0
    endloop
  endfacet
  facet normal -0.743147 0.669129 0
    outer loop
      vertex -2.04508 60.9389 0
      vertex -1.34565 61.7157 0.799999
      vertex -1.34565 61.7157 0
    endloop
  endfacet
  facet normal -0.743147 0.669129 0
    outer loop
      vertex -1.34565 61.7157 0.799999
      vertex -2.04508 60.9389 0
      vertex -2.04508 60.9389 0.799999
    endloop
  endfacet
  facet normal -0.951054 0.309023 0
    outer loop
      vertex -2.89074 59.0396 0
      vertex -2.56773 60.0337 0.799999
      vertex -2.56773 60.0337 0
    endloop
  endfacet
  facet normal -0.951054 0.309023 0
    outer loop
      vertex -2.56773 60.0337 0.799999
      vertex -2.89074 59.0396 0
      vertex -2.89074 59.0396 0.799999
    endloop
  endfacet
  facet normal -0.994523 -0.104522 0
    outer loop
      vertex -2.89074 56.9604 0
      vertex -3 58 0.799999
      vertex -3 58 0
    endloop
  endfacet
  facet normal -0.994523 -0.104522 0
    outer loop
      vertex -3 58 0.799999
      vertex -2.89074 56.9604 0
      vertex -2.89074 56.9604 0.799999
    endloop
  endfacet
  facet normal -0.866012 -0.500023 0
    outer loop
      vertex -2.04508 55.0611 0
      vertex -2.56773 55.9663 0.799999
      vertex -2.56773 55.9663 0
    endloop
  endfacet
  facet normal -0.866012 -0.500023 0
    outer loop
      vertex -2.56773 55.9663 0.799999
      vertex -2.04508 55.0611 0
      vertex -2.04508 55.0611 0.799999
    endloop
  endfacet
  facet normal -0.951054 -0.309023 0
    outer loop
      vertex -2.56773 55.9663 0
      vertex -2.89074 56.9604 0.799999
      vertex -2.89074 56.9604 0
    endloop
  endfacet
  facet normal -0.951054 -0.309023 0
    outer loop
      vertex -2.89074 56.9604 0.799999
      vertex -2.56773 55.9663 0
      vertex -2.56773 55.9663 0.799999
    endloop
  endfacet
  facet normal 0.40677 0.91353 -0
    outer loop
      vertex 4.5 62.3301 0
      vertex 3.54508 62.7553 0.799999
      vertex 4.5 62.3301 0.799999
    endloop
  endfacet
  facet normal 0.40677 0.91353 0
    outer loop
      vertex 3.54508 62.7553 0.799999
      vertex 4.5 62.3301 0
      vertex 3.54508 62.7553 0
    endloop
  endfacet
  facet normal -0.994523 0.104522 0
    outer loop
      vertex -3 58 0
      vertex -2.89074 59.0396 0.799999
      vertex -2.89074 59.0396 0
    endloop
  endfacet
  facet normal -0.994523 0.104522 0
    outer loop
      vertex -2.89074 59.0396 0.799999
      vertex -3 58 0
      vertex -3 58 0.799999
    endloop
  endfacet
  facet normal 0 1 -0
    outer loop
      vertex 2.52264 62.9726 0
      vertex 1.47736 62.9726 0.799999
      vertex 2.52264 62.9726 0.799999
    endloop
  endfacet
  facet normal 0 1 0
    outer loop
      vertex 1.47736 62.9726 0.799999
      vertex 2.52264 62.9726 0
      vertex 1.47736 62.9726 0
    endloop
  endfacet
  facet normal -0.406772 0.913529 0
    outer loop
      vertex 0.454914 62.7553 0
      vertex -0.5 62.3301 0.799999
      vertex 0.454914 62.7553 0.799999
    endloop
  endfacet
  facet normal -0.406772 0.913529 0
    outer loop
      vertex -0.5 62.3301 0.799999
      vertex 0.454914 62.7553 0
      vertex -0.5 62.3301 0
    endloop
  endfacet
  facet normal 0.743147 0.669129 0
    outer loop
      vertex 6.04508 60.9389 0.799999
      vertex 5.34565 61.7157 0
      vertex 5.34565 61.7157 0.799999
    endloop
  endfacet
  facet normal 0.743147 0.669129 0
    outer loop
      vertex 5.34565 61.7157 0
      vertex 6.04508 60.9389 0.799999
      vertex 6.04508 60.9389 0
    endloop
  endfacet
  facet normal -0.406715 -0.913555 0
    outer loop
      vertex -0.5 53.6699 0
      vertex 0 53.4473 0.799999
      vertex -0.5 53.6699 0.799999
    endloop
  endfacet
  facet normal -0.406715 -0.913555 -0
    outer loop
      vertex 0 53.4473 0.799999
      vertex -0.5 53.6699 0
      vertex 0 53.4473 0
    endloop
  endfacet
  facet normal 0.587785 0.809017 -0
    outer loop
      vertex 5.34565 61.7157 0
      vertex 4.5 62.3301 0.799999
      vertex 5.34565 61.7157 0.799999
    endloop
  endfacet
  facet normal 0.587785 0.809017 0
    outer loop
      vertex 4.5 62.3301 0.799999
      vertex 5.34565 61.7157 0
      vertex 4.5 62.3301 0
    endloop
  endfacet
  facet normal 0 0 1
    outer loop
      vertex 2.52264 62.9726 0.799999
      vertex 3.5 60 0.799999
      vertex 3.54508 62.7553 0.799999
    endloop
  endfacet
  facet normal -0 0 1
    outer loop
      vertex 1.47736 62.9726 0.799999
      vertex 3.5 60 0.799999
      vertex 2.52264 62.9726 0.799999
    endloop
  endfacet
  facet normal 0 0 1
    outer loop
      vertex 0 60 0.799999
      vertex 1.47736 62.9726 0.799999
      vertex 0.454914 62.7553 0.799999
    endloop
  endfacet
  facet normal 0 0 1
    outer loop
      vertex 1.47736 62.9726 0.799999
      vertex 0 60 0.799999
      vertex 3.5 60 0.799999
    endloop
  endfacet
  facet normal -0 0 1
    outer loop
      vertex -3 58 0.799999
      vertex 0 56.5 0.799999
      vertex 0 60 0.799999
    endloop
  endfacet
  facet normal -0 -0 1
    outer loop
      vertex -2.89074 56.9604 0.799999
      vertex 0 56.5 0.799999
      vertex -3 58 0.799999
    endloop
  endfacet
  facet normal -0 0 1
    outer loop
      vertex -0.5 62.3301 0.799999
      vertex 0 60 0.799999
      vertex 0.454914 62.7553 0.799999
    endloop
  endfacet
  facet normal -0 0 1
    outer loop
      vertex -1.34565 61.7157 0.799999
      vertex 0 60 0.799999
      vertex -0.5 62.3301 0.799999
    endloop
  endfacet
  facet normal -0 0 1
    outer loop
      vertex -2.04508 60.9389 0.799999
      vertex 0 60 0.799999
      vertex -1.34565 61.7157 0.799999
    endloop
  endfacet
  facet normal -0 0 1
    outer loop
      vertex -2.56773 60.0337 0.799999
      vertex 0 60 0.799999
      vertex -2.04508 60.9389 0.799999
    endloop
  endfacet
  facet normal 0 0 1
    outer loop
      vertex 0 55.5 0.799999
      vertex -0.5 53.6699 0.799999
      vertex 0 53.4473 0.799999
    endloop
  endfacet
  facet normal 0 0 1
    outer loop
      vertex 0 55.5 0.799999
      vertex -2.04508 55.0611 0.799999
      vertex -1.34565 54.2843 0.799999
    endloop
  endfacet
  facet normal 0 0 1
    outer loop
      vertex 0 55.5 0.799999
      vertex -1.34565 54.2843 0.799999
      vertex -0.5 53.6699 0.799999
    endloop
  endfacet
  facet normal 0 0 1
    outer loop
      vertex -2.89074 59.0396 0.799999
      vertex 0 60 0.799999
      vertex -2.56773 60.0337 0.799999
    endloop
  endfacet
  facet normal 0 0 1
    outer loop
      vertex 0 56.5 0.799999
      vertex -2.04508 55.0611 0.799999
      vertex 0 55.5 0.799999
    endloop
  endfacet
  facet normal 0 0 1
    outer loop
      vertex -3 58 0.799999
      vertex 0 60 0.799999
      vertex -2.89074 59.0396 0.799999
    endloop
  endfacet
  facet normal 0 -0 1
    outer loop
      vertex -2.04508 55.0611 0.799999
      vertex 0 56.5 0.799999
      vertex -2.56773 55.9663 0.799999
    endloop
  endfacet
  facet normal 0 -0 1
    outer loop
      vertex -2.56773 55.9663 0.799999
      vertex 0 56.5 0.799999
      vertex -2.89074 56.9604 0.799999
    endloop
  endfacet
  facet normal 0 0 1
    outer loop
      vertex 4.5 60 0.799999
      vertex 6.56773 60.0337 0.799999
      vertex 6.04508 60.9389 0.799999
    endloop
  endfacet
  facet normal 0 0 1
    outer loop
      vertex 4.5 60 0.799999
      vertex 6.04508 60.9389 0.799999
      vertex 5.34565 61.7157 0.799999
    endloop
  endfacet
  facet normal 0 0 1
    outer loop
      vertex 4.5 60 0.799999
      vertex 5.34565 61.7157 0.799999
      vertex 4.5 62.3301 0.799999
    endloop
  endfacet
  facet normal 0 0 1
    outer loop
      vertex 6.56773 60.0337 0.799999
      vertex 4.5 60 0.799999
      vertex 6.57867 60 0.799999
    endloop
  endfacet
  facet normal 0 0 1
    outer loop
      vertex 3.5 60 0.799999
      vertex 4.5 60 0.799999
      vertex 4.5 62.3301 0.799999
    endloop
  endfacet
  facet normal 0 0 1
    outer loop
      vertex 3.5 60 0.799999
      vertex 4.5 62.3301 0.799999
      vertex 3.54508 62.7553 0.799999
    endloop
  endfacet
  facet normal 0 0 1
    outer loop
      vertex 4.5 60 0.799999
      vertex 3.5 60 0.799999
      vertex 4.5 59 0.799999
    endloop
  endfacet
  facet normal 0 0 1
    outer loop
      vertex 4.5 59 0.799999
      vertex 3.5 60 0.799999
      vertex 3.5 59 0.799999
    endloop
  endfacet
  facet normal -0 0 1
    outer loop
      vertex 0 56.5 0.799999
      vertex 1 55.5 0.799999
      vertex 1 56.5 0.799999
    endloop
  endfacet
  facet normal 0 0 1
    outer loop
      vertex 1 55.5 0.799999
      vertex 0 56.5 0.799999
      vertex 0 55.5 0.799999
    endloop
  endfacet
  facet normal -0.866012 0.500023 0
    outer loop
      vertex -2.56773 60.0337 0
      vertex -2.04508 60.9389 0.799999
      vertex -2.04508 60.9389 0
    endloop
  endfacet
  facet normal -0.866012 0.500023 0
    outer loop
      vertex -2.04508 60.9389 0.799999
      vertex -2.56773 60.0337 0
      vertex -2.56773 60.0337 0.799999
    endloop
  endfacet
  facet normal -0.743147 -0.669129 0
    outer loop
      vertex -1.34565 54.2843 0
      vertex -2.04508 55.0611 0.799999
      vertex -2.04508 55.0611 0
    endloop
  endfacet
  facet normal -0.743147 -0.669129 0
    outer loop
      vertex -2.04508 55.0611 0.799999
      vertex -1.34565 54.2843 0
      vertex -1.34565 54.2843 0.799999
    endloop
  endfacet
  facet normal 0.951057 0.309015 0
    outer loop
      vertex 62.8907 59.0396 0.799999
      vertex 62.5677 60.0337 0
      vertex 62.5677 60.0337 0.799999
    endloop
  endfacet
  facet normal 0.951057 0.309015 0
    outer loop
      vertex 62.5677 60.0337 0
      vertex 62.8907 59.0396 0.799999
      vertex 62.8907 59.0396 0
    endloop
  endfacet
  facet normal 0.994519 0.10456 0
    outer loop
      vertex 63 58 0.799999
      vertex 62.8907 59.0396 0
      vertex 62.8907 59.0396 0.799999
    endloop
  endfacet
  facet normal 0.994519 0.10456 0
    outer loop
      vertex 62.8907 59.0396 0
      vertex 63 58 0.799999
      vertex 63 58 0
    endloop
  endfacet
  facet normal 0.866033 0.499987 0
    outer loop
      vertex 62.5677 60.0337 0.799999
      vertex 62.0451 60.9389 0
      vertex 62.0451 60.9389 0.799999
    endloop
  endfacet
  facet normal 0.866033 0.499987 0
    outer loop
      vertex 62.0451 60.9389 0
      vertex 62.5677 60.0337 0.799999
      vertex 62.5677 60.0337 0
    endloop
  endfacet
  facet normal 0 1 -0
    outer loop
      vertex 58.5226 62.9726 0
      vertex 57.4774 62.9726 0.799999
      vertex 58.5226 62.9726 0.799999
    endloop
  endfacet
  facet normal 0 1 0
    outer loop
      vertex 57.4774 62.9726 0.799999
      vertex 58.5226 62.9726 0
      vertex 57.4774 62.9726 0
    endloop
  endfacet
  facet normal 0.743161 -0.669113 0
    outer loop
      vertex 61.3457 54.2843 0.799999
      vertex 62.0451 55.0611 0
      vertex 62.0451 55.0611 0.799999
    endloop
  endfacet
  facet normal 0.743161 -0.669113 0
    outer loop
      vertex 62.0451 55.0611 0
      vertex 61.3457 54.2843 0.799999
      vertex 61.3457 54.2843 0
    endloop
  endfacet
  facet normal 0.207876 0.978155 -0
    outer loop
      vertex 59.5451 62.7553 0
      vertex 58.5226 62.9726 0.799999
      vertex 59.5451 62.7553 0.799999
    endloop
  endfacet
  facet normal 0.207876 0.978155 0
    outer loop
      vertex 58.5226 62.9726 0.799999
      vertex 59.5451 62.7553 0
      vertex 58.5226 62.9726 0
    endloop
  endfacet
  facet normal 0.743161 0.669113 0
    outer loop
      vertex 62.0451 60.9389 0.799999
      vertex 61.3457 61.7157 0
      vertex 61.3457 61.7157 0.799999
    endloop
  endfacet
  facet normal 0.743161 0.669113 0
    outer loop
      vertex 61.3457 61.7157 0
      vertex 62.0451 60.9389 0.799999
      vertex 62.0451 60.9389 0
    endloop
  endfacet
  facet normal 0.951057 -0.309015 0
    outer loop
      vertex 62.5677 55.9663 0.799999
      vertex 62.8907 56.9604 0
      vertex 62.8907 56.9604 0.799999
    endloop
  endfacet
  facet normal 0.951057 -0.309015 0
    outer loop
      vertex 62.8907 56.9604 0
      vertex 62.5677 55.9663 0.799999
      vertex 62.5677 55.9663 0
    endloop
  endfacet
  facet normal -0.950639 0.310298 0
    outer loop
      vertex 53.4213 60 0
      vertex 53.4323 60.0337 0.799999
      vertex 53.4323 60.0337 0
    endloop
  endfacet
  facet normal -0.950639 0.310298 0
    outer loop
      vertex 53.4323 60.0337 0.799999
      vertex 53.4213 60 0
      vertex 53.4213 60 0.799999
    endloop
  endfacet
  facet normal -0.406777 0.913527 0
    outer loop
      vertex 56.4549 62.7553 0
      vertex 55.5 62.3301 0.799999
      vertex 56.4549 62.7553 0.799999
    endloop
  endfacet
  facet normal -0.406777 0.913527 0
    outer loop
      vertex 55.5 62.3301 0.799999
      vertex 56.4549 62.7553 0
      vertex 55.5 62.3301 0
    endloop
  endfacet
  facet normal 0.406715 -0.913555 0
    outer loop
      vertex 60 53.4473 0
      vertex 60.5 53.6699 0.799999
      vertex 60 53.4473 0.799999
    endloop
  endfacet
  facet normal 0.406715 -0.913555 0
    outer loop
      vertex 60.5 53.6699 0.799999
      vertex 60 53.4473 0
      vertex 60.5 53.6699 0
    endloop
  endfacet
  facet normal 0.866033 -0.499987 0
    outer loop
      vertex 62.0451 55.0611 0.799999
      vertex 62.5677 55.9663 0
      vertex 62.5677 55.9663 0.799999
    endloop
  endfacet
  facet normal 0.866033 -0.499987 0
    outer loop
      vertex 62.5677 55.9663 0
      vertex 62.0451 55.0611 0.799999
      vertex 62.0451 55.0611 0
    endloop
  endfacet
  facet normal -0.743161 0.669113 0
    outer loop
      vertex 53.9549 60.9389 0
      vertex 54.6543 61.7157 0.799999
      vertex 54.6543 61.7157 0
    endloop
  endfacet
  facet normal -0.743161 0.669113 0
    outer loop
      vertex 54.6543 61.7157 0.799999
      vertex 53.9549 60.9389 0
      vertex 53.9549 60.9389 0.799999
    endloop
  endfacet
  facet normal -0.587762 0.809034 0
    outer loop
      vertex 55.5 62.3301 0
      vertex 54.6543 61.7157 0.799999
      vertex 55.5 62.3301 0.799999
    endloop
  endfacet
  facet normal -0.587762 0.809034 0
    outer loop
      vertex 54.6543 61.7157 0.799999
      vertex 55.5 62.3301 0
      vertex 54.6543 61.7157 0
    endloop
  endfacet
  facet normal 0.994519 -0.10456 0
    outer loop
      vertex 62.8907 56.9604 0.799999
      vertex 63 58 0
      vertex 63 58 0.799999
    endloop
  endfacet
  facet normal 0.994519 -0.10456 0
    outer loop
      vertex 63 58 0
      vertex 62.8907 56.9604 0.799999
      vertex 62.8907 56.9604 0
    endloop
  endfacet
  facet normal 0.587762 0.809034 -0
    outer loop
      vertex 61.3457 61.7157 0
      vertex 60.5 62.3301 0.799999
      vertex 61.3457 61.7157 0.799999
    endloop
  endfacet
  facet normal 0.587762 0.809034 0
    outer loop
      vertex 60.5 62.3301 0.799999
      vertex 61.3457 61.7157 0
      vertex 60.5 62.3301 0
    endloop
  endfacet
  facet normal 0.406777 0.913527 -0
    outer loop
      vertex 60.5 62.3301 0
      vertex 59.5451 62.7553 0.799999
      vertex 60.5 62.3301 0.799999
    endloop
  endfacet
  facet normal 0.406777 0.913527 0
    outer loop
      vertex 59.5451 62.7553 0.799999
      vertex 60.5 62.3301 0
      vertex 59.5451 62.7553 0
    endloop
  endfacet
  facet normal -0.866033 0.499987 0
    outer loop
      vertex 53.4323 60.0337 0
      vertex 53.9549 60.9389 0.799999
      vertex 53.9549 60.9389 0
    endloop
  endfacet
  facet normal -0.866033 0.499987 0
    outer loop
      vertex 53.9549 60.9389 0.799999
      vertex 53.4323 60.0337 0
      vertex 53.4323 60.0337 0.799999
    endloop
  endfacet
  facet normal 0.587762 -0.809034 0
    outer loop
      vertex 60.5 53.6699 0
      vertex 61.3457 54.2843 0.799999
      vertex 60.5 53.6699 0.799999
    endloop
  endfacet
  facet normal 0.587762 -0.809034 0
    outer loop
      vertex 61.3457 54.2843 0.799999
      vertex 60.5 53.6699 0
      vertex 61.3457 54.2843 0
    endloop
  endfacet
  facet normal -0.207876 0.978155 0
    outer loop
      vertex 57.4774 62.9726 0
      vertex 56.4549 62.7553 0.799999
      vertex 57.4774 62.9726 0.799999
    endloop
  endfacet
  facet normal -0.207876 0.978155 0
    outer loop
      vertex 56.4549 62.7553 0.799999
      vertex 57.4774 62.9726 0
      vertex 56.4549 62.7553 0
    endloop
  endfacet
  facet normal -0 0 1
    outer loop
      vertex 54.6543 61.7157 0.799999
      vertex 55.5 60 0.799999
      vertex 55.5 62.3301 0.799999
    endloop
  endfacet
  facet normal -0 0 1
    outer loop
      vertex 53.9549 60.9389 0.799999
      vertex 55.5 60 0.799999
      vertex 54.6543 61.7157 0.799999
    endloop
  endfacet
  facet normal -0 0 1
    outer loop
      vertex 53.4323 60.0337 0.799999
      vertex 55.5 60 0.799999
      vertex 53.9549 60.9389 0.799999
    endloop
  endfacet
  facet normal 0 0 1
    outer loop
      vertex 55.5 60 0.799999
      vertex 53.4323 60.0337 0.799999
      vertex 53.4213 60 0.799999
    endloop
  endfacet
  facet normal -0 0 1
    outer loop
      vertex 59 56.5 0.799999
      vertex 60 55.5 0.799999
      vertex 60 56.5 0.799999
    endloop
  endfacet
  facet normal 0 0 1
    outer loop
      vertex 60 55.5 0.799999
      vertex 59 56.5 0.799999
      vertex 59 55.5 0.799999
    endloop
  endfacet
  facet normal 0 0 1
    outer loop
      vertex 60 60 0.799999
      vertex 63 58 0.799999
      vertex 62.8907 59.0396 0.799999
    endloop
  endfacet
  facet normal -0 0 1
    outer loop
      vertex 60 60 0.799999
      vertex 62.8907 59.0396 0.799999
      vertex 62.5677 60.0337 0.799999
    endloop
  endfacet
  facet normal 0 0 1
    outer loop
      vertex 63 58 0.799999
      vertex 60 60 0.799999
      vertex 60 56.5 0.799999
    endloop
  endfacet
  facet normal 0 0 1
    outer loop
      vertex 60 60 0.799999
      vertex 62.5677 60.0337 0.799999
      vertex 62.0451 60.9389 0.799999
    endloop
  endfacet
  facet normal 0 0 1
    outer loop
      vertex 63 58 0.799999
      vertex 60 56.5 0.799999
      vertex 62.8907 56.9604 0.799999
    endloop
  endfacet
  facet normal 0 0 1
    outer loop
      vertex 60 60 0.799999
      vertex 62.0451 60.9389 0.799999
      vertex 61.3457 61.7157 0.799999
    endloop
  endfacet
  facet normal 0 0 1
    outer loop
      vertex 62.8907 56.9604 0.799999
      vertex 60 56.5 0.799999
      vertex 62.5677 55.9663 0.799999
    endloop
  endfacet
  facet normal 0 0 1
    outer loop
      vertex 60 60 0.799999
      vertex 61.3457 61.7157 0.799999
      vertex 60.5 62.3301 0.799999
    endloop
  endfacet
  facet normal 0 0 1
    outer loop
      vertex 62.5677 55.9663 0.799999
      vertex 60 56.5 0.799999
      vertex 62.0451 55.0611 0.799999
    endloop
  endfacet
  facet normal -0 0 1
    outer loop
      vertex 60 55.5 0.799999
      vertex 62.0451 55.0611 0.799999
      vertex 60 56.5 0.799999
    endloop
  endfacet
  facet normal 0 0 1
    outer loop
      vertex 59.5451 62.7553 0.799999
      vertex 60 60 0.799999
      vertex 60.5 62.3301 0.799999
    endloop
  endfacet
  facet normal 0 0 1
    outer loop
      vertex 58.5226 62.9726 0.799999
      vertex 60 60 0.799999
      vertex 59.5451 62.7553 0.799999
    endloop
  endfacet
  facet normal 0 0 1
    outer loop
      vertex 56.5 60 0.799999
      vertex 58.5226 62.9726 0.799999
      vertex 57.4774 62.9726 0.799999
    endloop
  endfacet
  facet normal 0 0 1
    outer loop
      vertex 58.5226 62.9726 0.799999
      vertex 56.5 60 0.799999
      vertex 60 60 0.799999
    endloop
  endfacet
  facet normal -0 0 1
    outer loop
      vertex 56.4549 62.7553 0.799999
      vertex 56.5 60 0.799999
      vertex 57.4774 62.9726 0.799999
    endloop
  endfacet
  facet normal -0 0 1
    outer loop
      vertex 55.5 62.3301 0.799999
      vertex 56.5 60 0.799999
      vertex 56.4549 62.7553 0.799999
    endloop
  endfacet
  facet normal 0 0 1
    outer loop
      vertex 56.5 60 0.799999
      vertex 55.5 62.3301 0.799999
      vertex 55.5 60 0.799999
    endloop
  endfacet
  facet normal 0 0 1
    outer loop
      vertex 56.5 60 0.799999
      vertex 55.5 60 0.799999
      vertex 56.5 59 0.799999
    endloop
  endfacet
  facet normal 0 0 1
    outer loop
      vertex 56.5 59 0.799999
      vertex 55.5 60 0.799999
      vertex 55.5 59 0.799999
    endloop
  endfacet
  facet normal 0 0 1
    outer loop
      vertex 62.0451 55.0611 0.799999
      vertex 60 55.5 0.799999
      vertex 61.3457 54.2843 0.799999
    endloop
  endfacet
  facet normal 0 0 1
    outer loop
      vertex 61.3457 54.2843 0.799999
      vertex 60 55.5 0.799999
      vertex 60.5 53.6699 0.799999
    endloop
  endfacet
  facet normal 0 0 1
    outer loop
      vertex 60.5 53.6699 0.799999
      vertex 60 55.5 0.799999
      vertex 60 53.4473 0.799999
    endloop
  endfacet
  facet normal -1 0 0
    outer loop
      vertex 55 5 0
      vertex 55 29 50
      vertex 55 29 0
    endloop
  endfacet
  facet normal -1 -0 0
    outer loop
      vertex 55 29 50
      vertex 55 5 0
      vertex 55 5 50
    endloop
  endfacet
  facet normal -1 0 0
    outer loop
      vertex 55 31 0
      vertex 55 55 50
      vertex 55 55 0
    endloop
  endfacet
  facet normal -1 -0 0
    outer loop
      vertex 55 55 50
      vertex 55 31 0
      vertex 55 31 50
    endloop
  endfacet
  facet normal 1 -0 0
    outer loop
      vertex 5 27 50
      vertex 5 55 0
      vertex 5 55 50
    endloop
  endfacet
  facet normal 1 0 0
    outer loop
      vertex 5 55 0
      vertex 5 27 50
      vertex 5 27 0
    endloop
  endfacet
  facet normal 1 -0 0
    outer loop
      vertex 5 5 50
      vertex 5 25 0
      vertex 5 25 50
    endloop
  endfacet
  facet normal 1 0 0
    outer loop
      vertex 5 25 0
      vertex 5 5 50
      vertex 5 5 0
    endloop
  endfacet
  facet normal 0 -1 0
    outer loop
      vertex 5 55 0
      vertex 29 55 50
      vertex 5 55 50
    endloop
  endfacet
  facet normal 0 -1 -0
    outer loop
      vertex 29 55 50
      vertex 5 55 0
      vertex 29 55 0
    endloop
  endfacet
  facet normal 0 -1 0
    outer loop
      vertex 31 55 0
      vertex 55 55 50
      vertex 31 55 50
    endloop
  endfacet
  facet normal 0 -1 -0
    outer loop
      vertex 55 55 50
      vertex 31 55 0
      vertex 55 55 0
    endloop
  endfacet
  facet normal 0 1 -0
    outer loop
      vertex 29 5 0
      vertex 5 5 50
      vertex 29 5 50
    endloop
  endfacet
  facet normal 0 1 0
    outer loop
      vertex 5 5 50
      vertex 29 5 0
      vertex 5 5 0
    endloop
  endfacet
  facet normal 0 1 -0
    outer loop
      vertex 55 5 0
      vertex 31 5 50
      vertex 55 5 50
    endloop
  endfacet
  facet normal 0 1 0
    outer loop
      vertex 31 5 50
      vertex 55 5 0
      vertex 31 5 0
    endloop
  endfacet
endsolid OpenSCAD_Model
