solid OpenSCAD_Model
  facet normal -1 0 0
    outer loop
      vertex 0 0 0
      vertex 0 60 5
      vertex 0 60 0
    endloop
  endfacet
  facet normal -1 -0 0
    outer loop
      vertex 0 60 5
      vertex 0 0 0
      vertex 0 0 5
    endloop
  endfacet
  facet normal 0 0 1
    outer loop
      vertex 60 60 5
      vertex 55 55 5
      vertex 60 0 5
    endloop
  endfacet
  facet normal 0 0 1
    outer loop
      vertex 60 60 5
      vertex 5 55 5
      vertex 55 55 5
    endloop
  endfacet
  facet normal 0 0 1
    outer loop
      vertex 5 55 5
      vertex 0 60 5
      vertex 5 5 5
    endloop
  endfacet
  facet normal -0 0 1
    outer loop
      vertex 0 60 5
      vertex 5 55 5
      vertex 60 60 5
    endloop
  endfacet
  facet normal -0 0 1
    outer loop
      vertex 55 5 5
      vertex 60 0 5
      vertex 55 55 5
    endloop
  endfacet
  facet normal -0 0 1
    outer loop
      vertex 5 5 5
      vertex 60 0 5
      vertex 55 5 5
    endloop
  endfacet
  facet normal 0 0 1
    outer loop
      vertex 5 5 5
      vertex 0 0 5
      vertex 60 0 5
    endloop
  endfacet
  facet normal 0 0 1
    outer loop
      vertex 0 0 5
      vertex 5 5 5
      vertex 0 60 5
    endloop
  endfacet
  facet normal 1 -0 0
    outer loop
      vertex 60 0 5
      vertex 60 60 0
      vertex 60 60 5
    endloop
  endfacet
  facet normal 1 0 0
    outer loop
      vertex 60 60 0
      vertex 60 0 5
      vertex 60 0 0
    endloop
  endfacet
  facet normal 0 1 -0
    outer loop
      vertex 60 60 0
      vertex 0 60 5
      vertex 60 60 5
    endloop
  endfacet
  facet normal 0 1 0
    outer loop
      vertex 0 60 5
      vertex 60 60 0
      vertex 0 60 0
    endloop
  endfacet
  facet normal 0 0 -1
    outer loop
      vertex 60 0 0
      vertex 55 5 0
      vertex 60 60 0
    endloop
  endfacet
  facet normal 0 0 -1
    outer loop
      vertex 60 0 0
      vertex 5 5 0
      vertex 55 5 0
    endloop
  endfacet
  facet normal -0 0 -1
    outer loop
      vertex 5 5 0
      vertex 0 0 0
      vertex 5 55 0
    endloop
  endfacet
  facet normal 0 0 -1
    outer loop
      vertex 0 0 0
      vertex 5 5 0
      vertex 60 0 0
    endloop
  endfacet
  facet normal 0 0 -1
    outer loop
      vertex 55 55 0
      vertex 60 60 0
      vertex 55 5 0
    endloop
  endfacet
  facet normal 0 0 -1
    outer loop
      vertex 5 55 0
      vertex 60 60 0
      vertex 55 55 0
    endloop
  endfacet
  facet normal 0 0 -1
    outer loop
      vertex 5 55 0
      vertex 0 60 0
      vertex 60 60 0
    endloop
  endfacet
  facet normal 0 0 -1
    outer loop
      vertex 0 60 0
      vertex 5 55 0
      vertex 0 0 0
    endloop
  endfacet
  facet normal 0 -1 0
    outer loop
      vertex 0 0 0
      vertex 60 0 5
      vertex 0 0 5
    endloop
  endfacet
  facet normal 0 -1 -0
    outer loop
      vertex 60 0 5
      vertex 0 0 0
      vertex 60 0 0
    endloop
  endfacet
  facet normal 1 -0 0
    outer loop
      vertex 5 5 5
      vertex 5 55 0
      vertex 5 55 5
    endloop
  endfacet
  facet normal 1 0 0
    outer loop
      vertex 5 55 0
      vertex 5 5 5
      vertex 5 5 0
    endloop
  endfacet
  facet normal -1 0 0
    outer loop
      vertex 55 5 0
      vertex 55 55 5
      vertex 55 55 0
    endloop
  endfacet
  facet normal -1 -0 0
    outer loop
      vertex 55 55 5
      vertex 55 5 0
      vertex 55 5 5
    endloop
  endfacet
  facet normal 0 1 -0
    outer loop
      vertex 55 5 0
      vertex 5 5 5
      vertex 55 5 5
    endloop
  endfacet
  facet normal 0 1 0
    outer loop
      vertex 5 5 5
      vertex 55 5 0
      vertex 5 5 0
    endloop
  endfacet
  facet normal 0 -1 0
    outer loop
      vertex 5 55 0
      vertex 55 55 5
      vertex 5 55 5
    endloop
  endfacet
  facet normal 0 -1 -0
    outer loop
      vertex 55 55 5
      vertex 5 55 0
      vertex 55 55 0
    endloop
  endfacet
endsolid OpenSCAD_Model
